<svg width="86" height="86" viewBox="0 0 86 86" fill="none" xmlns="http://www.w3.org/2000/svg">
<g clip-path="url(#clip0_492_27366)">
<path d="M62.1888 51.0357C63.0353 51.1835 63.9088 51.2507 64.7688 51.2507C74.3631 51.2507 83.1244 42.3416 85.1669 30.53C86.2553 24.2682 85.3416 18.0332 82.6138 12.9941C79.8322 7.83412 75.4784 4.52849 70.3722 3.66849C69.5256 3.52068 68.6522 3.45349 67.7922 3.45349C58.1978 3.45349 49.4366 12.3626 47.3941 24.1741C45.1366 37.2354 51.7747 49.2754 62.1888 51.0357ZM69.9288 6.27537C74.2019 7.00099 77.8703 9.82287 80.2622 14.2438C82.7078 18.7722 83.5141 24.4025 82.5331 30.0866C80.7056 40.6485 73.0731 48.6035 64.7822 48.6035C64.3119 48.6035 63.855 48.5632 63.3847 48.5229C62.3231 45.6875 59.0444 35.0316 67.2681 29.791C76.54 23.8919 71.2994 11.0994 68.7866 6.14099C69.1628 6.16787 69.5525 6.20818 69.9288 6.27537ZM50.0413 24.6175C51.7209 14.9157 58.3053 7.41755 65.8034 6.27537C67.5772 9.54068 73.8659 22.4272 65.8034 27.5604C57.2841 32.9757 58.9772 43.1075 60.3344 47.7838C52.7422 44.9754 48.2138 35.1929 50.0413 24.6175Z" fill="#0F75BC"/>
<path d="M62.1888 51.0357C63.0353 51.1835 63.9088 51.2507 64.7688 51.2507C74.3631 51.2507 83.1244 42.3416 85.1669 30.53C86.2553 24.2682 85.3416 18.0332 82.6138 12.9941C79.8322 7.83412 75.4784 4.52849 70.3722 3.66849C69.5256 3.52068 68.6522 3.45349 67.7922 3.45349C58.1978 3.45349 49.4366 12.3626 47.3941 24.1741C45.1366 37.2354 51.7747 49.2754 62.1888 51.0357ZM69.9288 6.27537C74.2019 7.00099 77.8703 9.82287 80.2622 14.2438C82.7078 18.7722 83.5141 24.4025 82.5331 30.0866C80.7056 40.6485 73.0731 48.6035 64.7822 48.6035C64.3119 48.6035 63.855 48.5632 63.3847 48.5229C62.3231 45.6875 59.0444 35.0316 67.2681 29.791C76.54 23.8919 71.2994 11.0994 68.7866 6.14099C69.1628 6.16787 69.5525 6.20818 69.9288 6.27537ZM50.0413 24.6175C51.7209 14.9157 58.3053 7.41755 65.8034 6.27537C67.5772 9.54068 73.8659 22.4272 65.8034 27.5604C57.2841 32.9757 58.9772 43.1075 60.3344 47.7838C52.7422 44.9754 48.2138 35.1929 50.0413 24.6175Z" fill="white" fill-opacity="0.35"/>
<path d="M71.9578 50.8207C67.1337 50.8207 61.7319 52.3929 56.7466 55.2282C52.8094 57.4722 49.5172 60.321 47.0312 63.3713C48.7916 60.8182 49.6381 58.0097 49.4903 55.1207C49.0737 47.3269 41.1053 41.0516 30.6106 39.6272C35.9991 39.4929 40.3931 37.4638 42.9866 33.8357C45.7144 30.0329 46.1309 25.0072 44.1691 19.686C42.2609 14.526 38.3372 9.67504 33.0966 6.02004C27.7753 2.32473 21.7553 0.282227 16.125 0.282227C10.4812 0.282227 5.88562 2.3516 3.19812 6.10066C-2.31125 13.7869 2.13656 26.2569 13.1016 33.9029C17.1866 36.7516 21.6881 38.606 26.1091 39.3182C25.4909 39.3182 24.8728 39.3182 24.2412 39.345C10.8306 40.0438 0.335936 48.2675 0.833123 57.6604C1.31687 66.6769 11.3681 73.4897 24.2278 73.4897C24.8325 73.4897 25.4506 73.4763 26.0687 73.436C32.4784 73.1 38.4312 71.071 42.8253 67.7116C44.1019 66.7441 45.1769 65.6825 46.1041 64.5672C42.1669 69.9557 40.7828 75.8682 43.0672 80.3563C45.0694 84.3204 49.5575 86.5913 55.3625 86.5913C60.1866 86.5913 65.5884 85.0191 70.5737 82.1838C81.8747 75.7472 88.0022 64.4732 84.2531 57.0557C82.2509 53.0916 77.7628 50.8207 71.9578 50.8207ZM16.125 2.94285C21.1909 2.94285 26.66 4.81066 31.5244 8.19691C36.3216 11.5429 39.9094 15.9504 41.6294 20.5997C43.2822 25.0879 42.9866 29.24 40.7828 32.3038C40.5275 32.6666 40.2453 33.0025 39.9362 33.325C36.8187 25.2491 29.8984 20.0354 20.3444 18.6513C12.8866 17.5763 8.90906 8.14316 7.8475 5.2541C10.0109 3.76254 12.8328 2.94285 16.125 2.94285ZM14.6603 31.7394C4.90468 24.94 0.752498 14.1229 5.40187 7.63254C5.49594 7.49816 5.61687 7.37723 5.72437 7.24285C7.37719 11.3413 11.7981 20.1025 19.9547 21.285C28.7697 22.5616 35.0719 27.4125 37.6922 34.9644L38.1759 34.8032C36.0394 36.2275 33.2712 37.0069 30.0597 37.0069C24.9937 37.0069 19.5247 35.1391 14.6603 31.7394ZM24.3891 41.9922C24.9669 41.9654 25.5312 41.9519 26.0956 41.9519C34.6956 41.9519 42.0459 45.4054 45.1769 50.3772C44.505 52.4197 41.8175 59.676 36.8591 61.2616C34.3462 62.0679 31.4975 61.2347 28.3934 58.7757C17.8316 50.4444 8.00875 53.2797 3.69531 55.255C4.945 48.3078 13.5987 42.5566 24.3891 41.9922ZM41.1859 65.6154C37.2219 68.6522 31.8066 70.4797 25.9344 70.7888C14.3378 71.3935 4.6225 65.7363 3.62812 58.265C6.19469 56.8138 15.9503 52.3525 26.7137 60.8585C29.5491 63.1025 32.3037 64.2313 34.9241 64.2313C35.8647 64.2313 36.7784 64.0835 37.6922 63.8013C42.2744 62.3366 45.15 57.4588 46.655 54.0457C46.7356 54.4488 46.7894 54.8519 46.8162 55.2685C47.0044 59.0175 45.0022 62.6994 41.1859 65.6154ZM45.4725 79.1738C42.3416 72.9925 47.9987 63.2907 58.0903 57.5394C62.6725 54.9191 67.6041 53.4813 71.9578 53.4813C73.5031 53.4813 74.9141 53.6828 76.1906 54.0322C74.5109 57.2707 69.3778 65.6153 60.2537 67.4025C50.9012 69.2435 47.2866 76.2175 45.9831 79.9935C45.795 79.7382 45.6203 79.4694 45.4725 79.1738ZM69.23 79.886C64.6478 82.5063 59.7162 83.9441 55.3625 83.9441C52.4466 83.9441 49.9741 83.2857 48.1331 82.0763C48.7378 79.5904 51.3447 71.8638 60.7778 70.0094C71.2994 67.94 76.9297 58.5472 78.6766 55.0535C80.0741 55.8463 81.1625 56.9079 81.8344 58.2382C84.9787 64.4194 79.3216 74.1347 69.23 79.886Z" fill="#0F75BC"/>
<path d="M71.9578 50.8207C67.1337 50.8207 61.7319 52.3929 56.7466 55.2282C52.8094 57.4722 49.5172 60.321 47.0312 63.3713C48.7916 60.8182 49.6381 58.0097 49.4903 55.1207C49.0737 47.3269 41.1053 41.0516 30.6106 39.6272C35.9991 39.4929 40.3931 37.4638 42.9866 33.8357C45.7144 30.0329 46.1309 25.0072 44.1691 19.686C42.2609 14.526 38.3372 9.67504 33.0966 6.02004C27.7753 2.32473 21.7553 0.282227 16.125 0.282227C10.4812 0.282227 5.88562 2.3516 3.19812 6.10066C-2.31125 13.7869 2.13656 26.2569 13.1016 33.9029C17.1866 36.7516 21.6881 38.606 26.1091 39.3182C25.4909 39.3182 24.8728 39.3182 24.2412 39.345C10.8306 40.0438 0.335936 48.2675 0.833123 57.6604C1.31687 66.6769 11.3681 73.4897 24.2278 73.4897C24.8325 73.4897 25.4506 73.4763 26.0687 73.436C32.4784 73.1 38.4312 71.071 42.8253 67.7116C44.1019 66.7441 45.1769 65.6825 46.1041 64.5672C42.1669 69.9557 40.7828 75.8682 43.0672 80.3563C45.0694 84.3204 49.5575 86.5913 55.3625 86.5913C60.1866 86.5913 65.5884 85.0191 70.5737 82.1838C81.8747 75.7472 88.0022 64.4732 84.2531 57.0557C82.2509 53.0916 77.7628 50.8207 71.9578 50.8207ZM16.125 2.94285C21.1909 2.94285 26.66 4.81066 31.5244 8.19691C36.3216 11.5429 39.9094 15.9504 41.6294 20.5997C43.2822 25.0879 42.9866 29.24 40.7828 32.3038C40.5275 32.6666 40.2453 33.0025 39.9362 33.325C36.8187 25.2491 29.8984 20.0354 20.3444 18.6513C12.8866 17.5763 8.90906 8.14316 7.8475 5.2541C10.0109 3.76254 12.8328 2.94285 16.125 2.94285ZM14.6603 31.7394C4.90468 24.94 0.752498 14.1229 5.40187 7.63254C5.49594 7.49816 5.61687 7.37723 5.72437 7.24285C7.37719 11.3413 11.7981 20.1025 19.9547 21.285C28.7697 22.5616 35.0719 27.4125 37.6922 34.9644L38.1759 34.8032C36.0394 36.2275 33.2712 37.0069 30.0597 37.0069C24.9937 37.0069 19.5247 35.1391 14.6603 31.7394ZM24.3891 41.9922C24.9669 41.9654 25.5312 41.9519 26.0956 41.9519C34.6956 41.9519 42.0459 45.4054 45.1769 50.3772C44.505 52.4197 41.8175 59.676 36.8591 61.2616C34.3462 62.0679 31.4975 61.2347 28.3934 58.7757C17.8316 50.4444 8.00875 53.2797 3.69531 55.255C4.945 48.3078 13.5987 42.5566 24.3891 41.9922ZM41.1859 65.6154C37.2219 68.6522 31.8066 70.4797 25.9344 70.7888C14.3378 71.3935 4.6225 65.7363 3.62812 58.265C6.19469 56.8138 15.9503 52.3525 26.7137 60.8585C29.5491 63.1025 32.3037 64.2313 34.9241 64.2313C35.8647 64.2313 36.7784 64.0835 37.6922 63.8013C42.2744 62.3366 45.15 57.4588 46.655 54.0457C46.7356 54.4488 46.7894 54.8519 46.8162 55.2685C47.0044 59.0175 45.0022 62.6994 41.1859 65.6154ZM45.4725 79.1738C42.3416 72.9925 47.9987 63.2907 58.0903 57.5394C62.6725 54.9191 67.6041 53.4813 71.9578 53.4813C73.5031 53.4813 74.9141 53.6828 76.1906 54.0322C74.5109 57.2707 69.3778 65.6153 60.2537 67.4025C50.9012 69.2435 47.2866 76.2175 45.9831 79.9935C45.795 79.7382 45.6203 79.4694 45.4725 79.1738ZM69.23 79.886C64.6478 82.5063 59.7162 83.9441 55.3625 83.9441C52.4466 83.9441 49.9741 83.2857 48.1331 82.0763C48.7378 79.5904 51.3447 71.8638 60.7778 70.0094C71.2994 67.94 76.9297 58.5472 78.6766 55.0535C80.0741 55.8463 81.1625 56.9079 81.8344 58.2382C84.9787 64.4194 79.3216 74.1347 69.23 79.886Z" fill="white" fill-opacity="0.35"/>
</g>
<defs>
<clipPath id="clip0_492_27366">
<rect width="86" height="86" fill="white"/>
</clipPath>
</defs>
</svg>
