<svg width="32" height="33" viewBox="0 0 32 33" fill="none" xmlns="http://www.w3.org/2000/svg">
<path d="M16.0035 24.9195C15.9379 24.9193 15.8731 24.9049 15.8136 24.8773L7.77142 21.0092C7.69797 20.9727 7.63607 20.9166 7.59261 20.8471C7.54915 20.7776 7.52584 20.6973 7.52527 20.6153V11.9578C7.52505 11.8838 7.54364 11.811 7.57929 11.7462C7.61495 11.6814 7.6665 11.6268 7.72909 11.5874C7.79169 11.548 7.86327 11.5252 7.93712 11.5211C8.01096 11.517 8.08463 11.5317 8.1512 11.5639L16.1934 15.432C16.2669 15.4685 16.3288 15.5246 16.3722 15.5941C16.4157 15.6637 16.439 15.7439 16.4396 15.8259V24.4835C16.4396 24.5572 16.4209 24.6298 16.3852 24.6944C16.3495 24.759 16.2981 24.8134 16.2356 24.8527C16.1663 24.8969 16.0857 24.9201 16.0035 24.9195ZM8.39736 20.3481L15.5675 23.8013V16.1037L8.39736 12.6505V20.3481Z" fill="black"/>
<path d="M16.0035 16.2585C15.9427 16.2628 15.8816 16.2544 15.8242 16.2339L7.78199 12.3657C7.70732 12.331 7.64414 12.2756 7.59987 12.2061C7.55559 12.1367 7.53207 12.056 7.53207 11.9737C7.53207 11.8913 7.55559 11.8106 7.59987 11.7412C7.64414 11.6717 7.70732 11.6163 7.78199 11.5816L15.8242 7.69586C15.883 7.66801 15.9473 7.65356 16.0123 7.65356C16.0774 7.65356 16.1416 7.66801 16.2005 7.69586L24.2426 11.564C24.3166 11.5998 24.379 11.6557 24.4225 11.7254C24.4661 11.7951 24.4891 11.8757 24.4888 11.9578C24.4888 12.0395 24.4657 12.1195 24.4221 12.1886C24.3786 12.2576 24.3163 12.313 24.2426 12.3482L16.1758 16.2339C16.1206 16.2536 16.062 16.262 16.0035 16.2585ZM8.97056 11.9543L16.0035 15.3407L23.0365 11.9614L16.0035 8.57146L8.97056 11.9543Z" fill="black"/>
<path d="M16.0035 24.9195C15.9213 24.9201 15.8407 24.8969 15.7714 24.8527C15.709 24.8135 15.6575 24.759 15.6218 24.6944C15.5862 24.6298 15.5675 24.5573 15.5675 24.4835V15.8294C15.5672 15.7473 15.5902 15.6667 15.6338 15.597C15.6773 15.5273 15.7397 15.4714 15.8136 15.4356L23.8558 11.5674C23.9224 11.5352 23.9961 11.5205 24.0699 11.5246C24.1438 11.5287 24.2153 11.5515 24.2779 11.5909C24.3405 11.6303 24.3921 11.685 24.4277 11.7497C24.4634 11.8145 24.482 11.8873 24.4818 11.9613V20.6118C24.482 20.694 24.459 20.7746 24.4155 20.8443C24.3719 20.9139 24.3096 20.9699 24.2356 21.0057L16.1758 24.8773C16.1219 24.9031 16.0632 24.9174 16.0035 24.9195ZM16.4396 16.1037V23.7907L23.6097 20.3376V12.6505L16.4396 16.1037Z" fill="black"/>
<path d="M11.9807 14.3244C11.8827 14.3235 11.788 14.2895 11.7117 14.2282C11.6355 14.1668 11.582 14.0815 11.5601 13.9861C11.5382 13.8906 11.549 13.7906 11.5909 13.7021C11.6327 13.6136 11.7031 13.5417 11.7908 13.4981L19.8365 9.62994C19.9405 9.58036 20.0599 9.57398 20.1687 9.6122C20.2774 9.65042 20.3666 9.73012 20.4167 9.83389C20.4417 9.88533 20.4563 9.94121 20.4596 9.99832C20.4629 10.0554 20.4548 10.1126 20.4358 10.1666C20.4169 10.2205 20.3874 10.2702 20.3491 10.3127C20.3108 10.3552 20.2644 10.3897 20.2127 10.4141L12.1705 14.2822C12.1109 14.3096 12.0462 14.3239 11.9807 14.3244Z" fill="black"/>
<path d="M13.0602 18.1222C12.9946 18.1225 12.9297 18.1081 12.8703 18.08L10.4967 16.9372C10.445 16.9127 10.3987 16.8783 10.3604 16.8358C10.3221 16.7933 10.2926 16.7436 10.2736 16.6896C10.2547 16.6357 10.2466 16.5785 10.2499 16.5214C10.2531 16.4643 10.2677 16.4084 10.2927 16.357C10.3429 16.2532 10.432 16.1735 10.5408 16.1353C10.6495 16.0971 10.7689 16.1034 10.873 16.153L13.2466 17.2888C13.334 17.3323 13.4043 17.4039 13.4462 17.4921C13.4881 17.5802 13.4992 17.6799 13.4777 17.7752C13.4562 17.8704 13.4034 17.9557 13.3277 18.0173C13.252 18.079 13.1578 18.1135 13.0602 18.1152V18.1222Z" fill="black"/>
<path d="M2.79208 22.117C2.70697 22.1183 2.62334 22.0947 2.55148 22.0491C2.47962 22.0035 2.42268 21.9379 2.38768 21.8603C1.0678 18.5962 0.965515 14.9663 2.09949 11.6331C3.23346 8.29982 5.52809 5.4854 8.56467 3.70336C11.6012 1.92133 15.1773 1.29049 18.6404 1.92596C22.1034 2.56143 25.2225 4.42084 27.4286 7.16489C27.4695 7.20857 27.501 7.2602 27.521 7.31657C27.5411 7.37294 27.5494 7.43285 27.5453 7.49255C27.5413 7.55226 27.525 7.61049 27.4974 7.66362C27.4699 7.71676 27.4317 7.76365 27.3853 7.80139C27.3388 7.83913 27.2851 7.8669 27.2275 7.88298C27.1698 7.89906 27.1095 7.9031 27.0502 7.89485C26.9909 7.8866 26.934 7.86624 26.8829 7.83504C26.8319 7.80383 26.7878 7.76245 26.7534 7.71346C24.6782 5.14018 21.7483 3.3972 18.4966 2.80152C15.2449 2.20584 11.8875 2.79703 9.03482 4.46757C6.18217 6.1381 4.02386 8.77702 2.95242 11.9044C1.88098 15.0317 1.96758 18.4397 3.19647 21.5086C3.22289 21.5747 3.23271 21.6463 3.22508 21.7171C3.21745 21.7879 3.1926 21.8557 3.15271 21.9147C3.11282 21.9737 3.0591 22.022 2.99623 22.0554C2.93337 22.0888 2.86327 22.1063 2.79208 22.1064V22.117Z" fill="black"/>
<path d="M16.0211 31.0348C13.8255 31.04 11.6568 30.5519 9.67501 29.6067C7.69327 28.6615 5.94915 27.2832 4.57144 25.5737C4.49869 25.4804 4.46597 25.3621 4.48048 25.2447C4.49499 25.1273 4.55553 25.0205 4.6488 24.9477C4.74206 24.875 4.8604 24.8423 4.97779 24.8568C5.09517 24.8713 5.20199 24.9318 5.27473 25.0251C7.36263 27.5953 10.305 29.3293 13.565 29.9105C16.825 30.4918 20.1853 29.8816 23.0328 28.1913C25.8804 26.501 28.0253 23.8434 29.0763 20.7031C30.1273 17.5629 30.0142 14.1495 28.7578 11.0857C28.7342 11.0326 28.7214 10.9752 28.7203 10.9171C28.7192 10.8589 28.7297 10.8011 28.7513 10.7471C28.7729 10.693 28.805 10.6439 28.8459 10.6025C28.8867 10.561 28.9355 10.5282 28.9892 10.5059C29.0429 10.4836 29.1006 10.4723 29.1588 10.4727C29.2169 10.473 29.2745 10.485 29.3279 10.5079C29.3814 10.5308 29.4298 10.5641 29.4702 10.606C29.5105 10.6479 29.5421 10.6974 29.5631 10.7517C30.7611 13.6839 30.9847 16.9237 30.2008 19.9927C29.417 23.0618 27.6671 25.7975 25.2097 27.7961C22.608 29.8958 19.3644 31.0391 16.0211 31.0348Z" fill="black"/>
<path d="M27.1262 7.90677H27.0769L23.0154 7.46721C22.9063 7.44801 22.8086 7.38803 22.7422 7.29944C22.6757 7.21085 22.6455 7.10029 22.6575 6.9902C22.6696 6.88011 22.7231 6.77875 22.8072 6.70668C22.8913 6.63461 22.9997 6.59724 23.1103 6.60216L26.7253 6.99249L27.1297 3.36348C27.1323 3.30389 27.1472 3.24548 27.1733 3.19186C27.1994 3.13824 27.2362 3.09054 27.2815 3.05173C27.3268 3.01292 27.3796 2.98381 27.4366 2.9662C27.4936 2.9486 27.5536 2.94287 27.6129 2.94938C27.6721 2.95589 27.7295 2.97449 27.7813 3.00404C27.8331 3.03358 27.8783 3.07344 27.9141 3.12116C27.9499 3.16887 27.9755 3.22342 27.9894 3.28143C28.0032 3.33944 28.0051 3.39968 27.9947 3.45842L27.5587 7.51996C27.5456 7.63485 27.4874 7.73983 27.3969 7.81183C27.3204 7.87387 27.2247 7.90743 27.1262 7.90677Z" fill="black"/>
<path d="M4.44836 29.7617H4.39912C4.28453 29.7493 4.17951 29.692 4.10703 29.6024C4.03454 29.5128 4.00049 29.3981 4.01231 29.2835L4.45187 25.2219C4.45734 25.1652 4.47417 25.1101 4.50135 25.0599C4.52854 25.0098 4.56552 24.9656 4.61011 24.9301C4.70015 24.8576 4.81511 24.8235 4.93011 24.8351L8.99165 25.2712C9.10021 25.2905 9.19739 25.3503 9.26364 25.4385C9.32989 25.5266 9.36027 25.6366 9.34868 25.7463C9.33709 25.8559 9.28439 25.9571 9.20118 26.0295C9.11797 26.1018 9.01043 26.14 8.90022 26.1362L5.27473 25.7459L4.87737 29.3749C4.8661 29.4809 4.81608 29.579 4.7369 29.6504C4.65772 29.7218 4.55497 29.7615 4.44836 29.7617Z" fill="black"/>
</svg>
