<svg width="32" height="33" viewBox="0 0 32 33" fill="none" xmlns="http://www.w3.org/2000/svg">
<path d="M3.33333 25.0764C3.2277 25.0764 3.12357 25.0513 3.02953 25.0032C2.93548 24.9551 2.85422 24.8853 2.79244 24.7997C2.73065 24.714 2.69011 24.6148 2.67415 24.5104C2.6582 24.406 2.66728 24.2993 2.70066 24.1991L4.24 19.5817C3.21223 18.0529 2.66439 16.2519 2.66666 14.4097C2.66667 12.3796 3.3286 10.4048 4.55211 8.7848C5.77562 7.16478 7.49398 5.98786 9.44666 5.43247C11.3994 4.87708 13.4799 4.97352 15.3728 5.70715C17.2658 6.44079 18.8679 7.77162 19.9363 9.49787C21.0047 11.2241 21.4811 13.2517 21.2933 15.2731C21.1055 17.2945 20.2638 19.1996 18.8957 20.6995C17.5275 22.1994 15.7077 23.2123 13.712 23.5847C11.7163 23.9571 9.65363 23.6686 7.83666 22.7631L3.64733 24.9977C3.55072 25.0493 3.44287 25.0764 3.33333 25.0764ZM12 6.40973C10.5268 6.4079 9.08174 6.81341 7.82457 7.58146C6.5674 8.3495 5.54705 9.45017 4.87629 10.7618C4.20553 12.0735 3.91046 13.5451 4.02371 15.0139C4.13696 16.4828 4.6541 17.8917 5.518 19.0851C5.57984 19.1706 5.62048 19.2696 5.63659 19.3739C5.6527 19.4782 5.64382 19.5849 5.61066 19.6851L4.494 23.0351L7.52 21.4211C7.61778 21.3689 7.72702 21.342 7.83784 21.3427C7.94865 21.3434 8.05754 21.3717 8.15466 21.4251C9.22415 22.0112 10.4135 22.3452 11.6318 22.4013C12.8501 22.4574 14.0651 22.2342 15.1839 21.7488C16.3028 21.2633 17.2958 20.5286 18.0871 19.6005C18.8785 18.6725 19.4471 17.5759 19.7497 16.3944C20.0523 15.213 20.0807 13.978 19.8328 12.7838C19.585 11.5897 19.0674 10.468 18.3196 9.50458C17.5718 8.54114 16.6136 7.76142 15.5183 7.22502C14.423 6.68863 13.2196 6.40976 12 6.40973Z" fill="#232323"/>
<path d="M28.6667 27.743C28.5571 27.7429 28.4493 27.7159 28.3527 27.6643L24.164 25.4303C22.872 26.0786 21.4456 26.4141 20 26.4096C18.7057 26.4074 17.4258 26.1371 16.241 25.6158C15.0562 25.0946 13.9922 24.3337 13.116 23.381C13.0566 23.3165 13.0105 23.241 12.9803 23.1588C12.95 23.0765 12.9363 22.9891 12.9399 22.9015C12.9434 22.814 12.9642 22.728 13.001 22.6484C13.0378 22.5689 13.0899 22.4974 13.1544 22.438C13.2188 22.3786 13.2943 22.3324 13.3766 22.3022C13.4588 22.272 13.5462 22.2583 13.6338 22.2618C13.7214 22.2654 13.8074 22.2862 13.8869 22.323C13.9664 22.3598 14.0379 22.4119 14.0974 22.4763C14.8484 23.2937 15.7606 23.9467 16.7765 24.3942C17.7924 24.8417 18.8899 25.0739 20 25.0763C21.3449 25.0803 22.6686 24.7414 23.846 24.0916C23.9432 24.0384 24.0521 24.0102 24.1629 24.0096C24.2737 24.009 24.383 24.0361 24.4807 24.0883L27.5047 25.701L26.3874 22.3543C26.3542 22.2541 26.3453 22.1474 26.3614 22.0431C26.3775 21.9388 26.4182 21.8398 26.48 21.7543C27.42 20.4578 27.9488 18.9087 27.9978 17.3081C28.0469 15.7074 27.6139 14.1289 26.7551 12.7772C25.8963 11.4256 24.6512 10.3631 23.1813 9.72756C21.7113 9.09203 20.0844 8.91275 18.5114 9.21296C18.4252 9.22846 18.3368 9.22683 18.2512 9.20816C18.1656 9.18949 18.0846 9.15415 18.0127 9.10417C17.9408 9.05418 17.8794 8.99051 17.8321 8.91681C17.7848 8.84311 17.7525 8.76082 17.737 8.67463C17.7215 8.58844 17.7232 8.50004 17.7418 8.41448C17.7605 8.32892 17.7958 8.24787 17.8458 8.17597C17.8958 8.10407 17.9595 8.04271 18.0332 7.99541C18.1069 7.94811 18.1892 7.91579 18.2754 7.9003C19.6233 7.65055 21.0097 7.70016 22.3364 8.04561C23.6631 8.39107 24.8977 9.02391 25.9527 9.89936C27.0077 10.7748 27.8573 11.8715 28.4415 13.1117C29.0258 14.3519 29.3302 15.7054 29.3334 17.0763C29.336 18.9193 28.7874 20.7209 27.758 22.2496L29.2994 26.8656C29.3327 26.9658 29.3418 27.0726 29.3259 27.177C29.3099 27.2814 29.2694 27.3806 29.2076 27.4662C29.1458 27.5519 29.0645 27.6217 28.9705 27.6698C28.8764 27.7179 28.7723 27.743 28.6667 27.743Z" fill="#232323"/>
</svg>
