<svg width="33" height="33" viewBox="0 0 33 33" fill="none" xmlns="http://www.w3.org/2000/svg">
<path d="M16.1534 24.0763H24.0467C23.9267 24.183 23.8067 24.2763 23.6867 24.383L17.9934 28.6496C16.1134 30.0496 13.0467 30.0496 11.1534 28.6496L5.44669 24.383C4.19335 23.4496 3.16669 21.383 3.16669 19.823V9.94298C3.16669 8.31631 4.40669 6.51632 5.92669 5.94298L12.5667 3.44965C13.66 3.03632 15.4734 3.03632 16.5667 3.44965L23.1934 5.94298C24.46 6.42298 25.54 7.75631 25.8734 9.11631H16.14C15.8467 9.11631 15.58 9.12965 15.3267 9.12965C12.86 9.27631 12.22 10.1696 12.22 12.983V20.223C12.2334 23.2896 13.02 24.0763 16.1534 24.0763Z" fill="white" fill-opacity="0.85"/>
<path d="M16.1534 24.0763H24.0467C23.9267 24.183 23.8067 24.2763 23.6867 24.383L17.9934 28.6496C16.1134 30.0496 13.0467 30.0496 11.1534 28.6496L5.44669 24.383C4.19335 23.4496 3.16669 21.383 3.16669 19.823V9.94298C3.16669 8.31631 4.40669 6.51632 5.92669 5.94298L12.5667 3.44965C13.66 3.03632 15.4734 3.03632 16.5667 3.44965L23.1934 5.94298C24.46 6.42298 25.54 7.75631 25.8734 9.11631H16.14C15.8467 9.11631 15.58 9.12965 15.3267 9.12965C12.86 9.27631 12.22 10.1696 12.22 12.983V20.223C12.2334 23.2896 13.02 24.0763 16.1534 24.0763Z" stroke="#9D9A9A" stroke-width="1.5" stroke-linecap="round" stroke-linejoin="round"/>
<path d="M16.1534 24.0763H24.0467C23.9267 24.183 23.8067 24.2763 23.6867 24.383L17.9934 28.6496C16.1134 30.0496 13.0467 30.0496 11.1534 28.6496L5.44669 24.383C4.19335 23.4496 3.16669 21.383 3.16669 19.823V9.94298C3.16669 8.31631 4.40669 6.51632 5.92669 5.94298L12.5667 3.44965C13.66 3.03632 15.4734 3.03632 16.5667 3.44965L23.1934 5.94298C24.46 6.42298 25.54 7.75631 25.8734 9.11631H16.14C15.8467 9.11631 15.58 9.12965 15.3267 9.12965C12.86 9.27631 12.22 10.1696 12.22 12.983V20.223C12.2334 23.2896 13.02 24.0763 16.1534 24.0763Z" stroke="black" stroke-opacity="0.65" stroke-width="1.5" stroke-linecap="round" stroke-linejoin="round"/>
<path d="M12.2333 15.3696H29.8333H12.2333Z" fill="#D9D9D9"/>
<path d="M12.2333 15.3696H29.8333" stroke="#9D9A9A" stroke-width="1.5" stroke-miterlimit="10" stroke-linecap="round" stroke-linejoin="round"/>
<path d="M12.2333 15.3696H29.8333" stroke="black" stroke-opacity="0.65" stroke-width="1.5" stroke-miterlimit="10" stroke-linecap="round" stroke-linejoin="round"/>
<path d="M29.8333 12.9697V20.3697C29.8067 23.3297 28.9933 24.0631 25.9133 24.0631H16.1533C13.02 24.0631 12.2333 23.2764 12.2333 20.1964V12.9564C12.2333 10.1564 12.8733 9.26305 15.34 9.10305C15.5933 9.10305 15.86 9.08972 16.1533 9.08972H25.9133C29.0467 9.10306 29.8333 9.87639 29.8333 12.9697Z" stroke="#9D9A9A" stroke-width="1.5" stroke-linecap="round" stroke-linejoin="round"/>
<path d="M29.8333 12.9697V20.3697C29.8067 23.3297 28.9933 24.0631 25.9133 24.0631H16.1533C13.02 24.0631 12.2333 23.2764 12.2333 20.1964V12.9564C12.2333 10.1564 12.8733 9.26305 15.34 9.10305C15.5933 9.10305 15.86 9.08972 16.1533 9.08972H25.9133C29.0467 9.10306 29.8333 9.87639 29.8333 12.9697Z" stroke="black" stroke-opacity="0.65" stroke-width="1.5" stroke-linecap="round" stroke-linejoin="round"/>
<path d="M15.5933 20.7563H17.3667H15.5933ZM20.1667 20.7563H24.5267H20.1667Z" fill="#9D9A9A"/>
<path d="M15.5933 20.7563H17.3667H15.5933ZM20.1667 20.7563H24.5267H20.1667Z" fill="white" fill-opacity="0.85"/>
<path d="M15.5933 20.7563H17.3667M20.1667 20.7563H24.5267" stroke="#9D9A9A" stroke-width="1.5" stroke-miterlimit="10" stroke-linecap="round" stroke-linejoin="round"/>
<path d="M15.5933 20.7563H17.3667M20.1667 20.7563H24.5267" stroke="black" stroke-opacity="0.65" stroke-width="1.5" stroke-miterlimit="10" stroke-linecap="round" stroke-linejoin="round"/>
</svg>
