<svg width="33" height="33" viewBox="0 0 33 33" fill="none" xmlns="http://www.w3.org/2000/svg">
<path d="M16.5 19.0763H17.8333C19.3 19.0763 20.5 17.8763 20.5 16.4096V3.07629H8.5C6.5 3.07629 4.75333 4.18296 3.84667 5.80963" stroke="#003BBF" stroke-width="1.5" stroke-linecap="round" stroke-linejoin="round"/>
<path d="M16.5 19.0763H17.8333C19.3 19.0763 20.5 17.8763 20.5 16.4096V3.07629H8.5C6.5 3.07629 4.75333 4.18296 3.84667 5.80963" stroke="black" stroke-opacity="0.8" stroke-width="1.5" stroke-linecap="round" stroke-linejoin="round"/>
<path d="M3.16667 23.0763C3.16667 25.2896 4.95333 27.0763 7.16667 27.0763H8.5C8.5 25.6096 9.7 24.4096 11.1667 24.4096C12.6333 24.4096 13.8333 25.6096 13.8333 27.0763H19.1667C19.1667 25.6096 20.3667 24.4096 21.8333 24.4096C23.3 24.4096 24.5 25.6096 24.5 27.0763H25.8333C28.0467 27.0763 29.8333 25.2896 29.8333 23.0763V19.0763H25.8333C25.1 19.0763 24.5 18.4763 24.5 17.743V13.743C24.5 13.0096 25.1 12.4096 25.8333 12.4096H27.5533L25.2733 8.42296C25.0384 8.01499 24.7005 7.67587 24.2933 7.43954C23.8862 7.2032 23.4241 7.07794 22.9533 7.07629H20.5V16.4096C20.5 17.8763 19.3 19.0763 17.8333 19.0763H16.5" stroke="#003BBF" stroke-width="1.5" stroke-linecap="round" stroke-linejoin="round"/>
<path d="M3.16667 23.0763C3.16667 25.2896 4.95333 27.0763 7.16667 27.0763H8.5C8.5 25.6096 9.7 24.4096 11.1667 24.4096C12.6333 24.4096 13.8333 25.6096 13.8333 27.0763H19.1667C19.1667 25.6096 20.3667 24.4096 21.8333 24.4096C23.3 24.4096 24.5 25.6096 24.5 27.0763H25.8333C28.0467 27.0763 29.8333 25.2896 29.8333 23.0763V19.0763H25.8333C25.1 19.0763 24.5 18.4763 24.5 17.743V13.743C24.5 13.0096 25.1 12.4096 25.8333 12.4096H27.5533L25.2733 8.42296C25.0384 8.01499 24.7005 7.67587 24.2933 7.43954C23.8862 7.2032 23.4241 7.07794 22.9533 7.07629H20.5V16.4096C20.5 17.8763 19.3 19.0763 17.8333 19.0763H16.5" stroke="black" stroke-opacity="0.8" stroke-width="1.5" stroke-linecap="round" stroke-linejoin="round"/>
<path d="M3.16667 11.0763H11.1667M3.16667 15.0763H8.5M3.16667 19.0763H5.83333M11.1667 29.743C11.8739 29.743 12.5522 29.462 13.0523 28.9619C13.5524 28.4618 13.8333 27.7835 13.8333 27.0763C13.8333 26.369 13.5524 25.6908 13.0523 25.1907C12.5522 24.6906 11.8739 24.4096 11.1667 24.4096C10.4594 24.4096 9.78114 24.6906 9.28105 25.1907C8.78095 25.6908 8.5 26.369 8.5 27.0763C8.5 27.7835 8.78095 28.4618 9.28105 28.9619C9.78114 29.462 10.4594 29.743 11.1667 29.743ZM21.8333 29.743C22.5406 29.743 23.2189 29.462 23.7189 28.9619C24.219 28.4618 24.5 27.7835 24.5 27.0763C24.5 26.369 24.219 25.6908 23.7189 25.1907C23.2189 24.6906 22.5406 24.4096 21.8333 24.4096C21.1261 24.4096 20.4478 24.6906 19.9477 25.1907C19.4476 25.6908 19.1667 26.369 19.1667 27.0763C19.1667 27.7835 19.4476 28.4618 19.9477 28.9619C20.4478 29.462 21.1261 29.743 21.8333 29.743ZM29.8333 16.4096V19.0763H25.8333C25.1 19.0763 24.5 18.4763 24.5 17.743V13.743C24.5 13.0096 25.1 12.4096 25.8333 12.4096H27.5533L29.8333 16.4096Z" stroke="#003BBF" stroke-width="1.5" stroke-linecap="round" stroke-linejoin="round"/>
<path d="M3.16667 11.0763H11.1667M3.16667 15.0763H8.5M3.16667 19.0763H5.83333M11.1667 29.743C11.8739 29.743 12.5522 29.462 13.0523 28.9619C13.5524 28.4618 13.8333 27.7835 13.8333 27.0763C13.8333 26.369 13.5524 25.6908 13.0523 25.1907C12.5522 24.6906 11.8739 24.4096 11.1667 24.4096C10.4594 24.4096 9.78114 24.6906 9.28105 25.1907C8.78095 25.6908 8.5 26.369 8.5 27.0763C8.5 27.7835 8.78095 28.4618 9.28105 28.9619C9.78114 29.462 10.4594 29.743 11.1667 29.743ZM21.8333 29.743C22.5406 29.743 23.2189 29.462 23.7189 28.9619C24.219 28.4618 24.5 27.7835 24.5 27.0763C24.5 26.369 24.219 25.6908 23.7189 25.1907C23.2189 24.6906 22.5406 24.4096 21.8333 24.4096C21.1261 24.4096 20.4478 24.6906 19.9477 25.1907C19.4476 25.6908 19.1667 26.369 19.1667 27.0763C19.1667 27.7835 19.4476 28.4618 19.9477 28.9619C20.4478 29.462 21.1261 29.743 21.8333 29.743ZM29.8333 16.4096V19.0763H25.8333C25.1 19.0763 24.5 18.4763 24.5 17.743V13.743C24.5 13.0096 25.1 12.4096 25.8333 12.4096H27.5533L29.8333 16.4096Z" stroke="black" stroke-opacity="0.8" stroke-width="1.5" stroke-linecap="round" stroke-linejoin="round"/>
</svg>
