<svg width="25" height="24" viewBox="0 0 25 24" fill="none" xmlns="http://www.w3.org/2000/svg">
<g clip-path="url(#clip0_271_10362)">
<path d="M19.6675 22.7502C18.866 22.7494 18.0777 22.5453 17.3764 22.1571C16.6751 21.7688 16.0837 21.2091 15.6575 20.5302C15.1975 19.8202 14.9375 18.9702 14.9175 18.1002C14.8875 16.6402 15.5075 15.2802 16.6175 14.3602C17.446 13.6721 18.4811 13.2813 19.5575 13.2502C20.8575 13.2402 22.0275 13.6902 22.9475 14.5702C23.8675 15.4502 24.3875 16.6302 24.4075 17.9002C24.4275 18.7702 24.2075 19.6202 23.7675 20.3702C23.5275 20.7902 23.2175 21.1802 22.8475 21.5102C22.0275 22.2802 20.9275 22.7302 19.7575 22.7502H19.6675ZM19.6675 14.7502H19.5975C18.8575 14.7702 18.1575 15.0302 17.5775 15.5102C16.8175 16.1402 16.3975 17.0702 16.4175 18.0702C16.4275 18.6602 16.6075 19.2402 16.9175 19.7302C17.5275 20.7102 18.5875 21.3102 19.7275 21.2502C20.5111 21.2339 21.2615 20.9316 21.8375 20.4002C22.0975 20.1702 22.3075 19.9102 22.4675 19.6302C22.7675 19.1102 22.9175 18.5302 22.9075 17.9402C22.8875 17.0702 22.5375 16.2602 21.9075 15.6602C21.3075 15.0702 20.5075 14.7502 19.6675 14.7502Z" fill="#0F75BC"/>
<path d="M19.6675 22.7502C18.866 22.7494 18.0777 22.5453 17.3764 22.1571C16.6751 21.7688 16.0837 21.2091 15.6575 20.5302C15.1975 19.8202 14.9375 18.9702 14.9175 18.1002C14.8875 16.6402 15.5075 15.2802 16.6175 14.3602C17.446 13.6721 18.4811 13.2813 19.5575 13.2502C20.8575 13.2402 22.0275 13.6902 22.9475 14.5702C23.8675 15.4502 24.3875 16.6302 24.4075 17.9002C24.4275 18.7702 24.2075 19.6202 23.7675 20.3702C23.5275 20.7902 23.2175 21.1802 22.8475 21.5102C22.0275 22.2802 20.9275 22.7302 19.7575 22.7502H19.6675ZM19.6675 14.7502H19.5975C18.8575 14.7702 18.1575 15.0302 17.5775 15.5102C16.8175 16.1402 16.3975 17.0702 16.4175 18.0702C16.4275 18.6602 16.6075 19.2402 16.9175 19.7302C17.5275 20.7102 18.5875 21.3102 19.7275 21.2502C20.5111 21.2339 21.2615 20.9316 21.8375 20.4002C22.0975 20.1702 22.3075 19.9102 22.4675 19.6302C22.7675 19.1102 22.9175 18.5302 22.9075 17.9402C22.8875 17.0702 22.5375 16.2602 21.9075 15.6602C21.3075 15.0702 20.5075 14.7502 19.6675 14.7502Z" fill="black" fill-opacity="0.2"/>
<path d="M19.1157 19.7499C18.9218 19.7497 18.7354 19.6745 18.5957 19.5399L17.5857 18.5799C17.5144 18.5118 17.4572 18.4303 17.4176 18.3401C17.3779 18.2498 17.3565 18.1526 17.3547 18.054C17.3528 17.9555 17.3705 17.8575 17.4067 17.7658C17.443 17.6741 17.497 17.5905 17.5657 17.5199C17.8557 17.2199 18.3257 17.2099 18.6257 17.4999L19.1157 17.9699L20.6857 16.4499C20.9857 16.1599 21.4557 16.1699 21.7457 16.4699C22.0357 16.7699 22.0257 17.2399 21.7257 17.5299L19.6357 19.5499C19.4857 19.6799 19.2957 19.7499 19.1157 19.7499ZM12.6677 13.2999C12.5377 13.2999 12.4077 13.2699 12.2877 13.1999L3.45774 8.08986C3.37229 8.04004 3.29751 7.97386 3.23767 7.8951C3.17784 7.81634 3.13413 7.72655 3.10905 7.63087C3.08397 7.5352 3.07801 7.43551 3.09151 7.33753C3.10502 7.23954 3.13772 7.14518 3.18774 7.05986C3.39774 6.69986 3.85774 6.57986 4.20774 6.78986L12.6577 11.6799L21.0577 6.81986C21.4177 6.60986 21.8777 6.73986 22.0777 7.08986C22.2877 7.44986 22.1577 7.90986 21.8077 8.11986L13.0377 13.1999C12.9277 13.2599 12.7977 13.2999 12.6677 13.2999Z" fill="#0F75BC"/>
<path d="M19.1157 19.7499C18.9218 19.7497 18.7354 19.6745 18.5957 19.5399L17.5857 18.5799C17.5144 18.5118 17.4572 18.4303 17.4176 18.3401C17.3779 18.2498 17.3565 18.1526 17.3547 18.054C17.3528 17.9555 17.3705 17.8575 17.4067 17.7658C17.443 17.6741 17.497 17.5905 17.5657 17.5199C17.8557 17.2199 18.3257 17.2099 18.6257 17.4999L19.1157 17.9699L20.6857 16.4499C20.9857 16.1599 21.4557 16.1699 21.7457 16.4699C22.0357 16.7699 22.0257 17.2399 21.7257 17.5299L19.6357 19.5499C19.4857 19.6799 19.2957 19.7499 19.1157 19.7499ZM12.6677 13.2999C12.5377 13.2999 12.4077 13.2699 12.2877 13.1999L3.45774 8.08986C3.37229 8.04004 3.29751 7.97386 3.23767 7.8951C3.17784 7.81634 3.13413 7.72655 3.10905 7.63087C3.08397 7.5352 3.07801 7.43551 3.09151 7.33753C3.10502 7.23954 3.13772 7.14518 3.18774 7.05986C3.39774 6.69986 3.85774 6.57986 4.20774 6.78986L12.6577 11.6799L21.0577 6.81986C21.4177 6.60986 21.8777 6.73986 22.0777 7.08986C22.2877 7.44986 22.1577 7.90986 21.8077 8.11986L13.0377 13.1999C12.9277 13.2599 12.7977 13.2999 12.6677 13.2999Z" fill="black" fill-opacity="0.2"/>
<path d="M12.6665 22.36C12.2565 22.36 11.9165 22.02 11.9165 21.61V12.54C11.9165 12.13 12.2565 11.79 12.6665 11.79C13.0765 11.79 13.4165 12.13 13.4165 12.54V21.61C13.4165 22.02 13.0765 22.36 12.6665 22.36Z" fill="#0F75BC"/>
<path d="M12.6665 22.36C12.2565 22.36 11.9165 22.02 11.9165 21.61V12.54C11.9165 12.13 12.2565 11.79 12.6665 11.79C13.0765 11.79 13.4165 12.13 13.4165 12.54V21.61C13.4165 22.02 13.0765 22.36 12.6665 22.36Z" fill="black" fill-opacity="0.2"/>
<path d="M12.6654 22.7519C11.7854 22.7519 10.9054 22.5619 10.2254 22.1719L4.88541 19.2119C3.43541 18.4119 2.29541 16.4819 2.29541 14.8219V9.16187C2.29541 7.50187 3.43541 5.58187 4.88541 4.77187L10.2254 1.81187C11.5854 1.04188 13.7254 1.04188 15.0954 1.81187L20.4354 4.77187C21.8854 5.57188 23.0254 7.50187 23.0254 9.16187V14.8219C23.0254 14.9219 23.0254 15.0019 23.0054 15.1019C22.9554 15.3619 22.7654 15.5819 22.5154 15.6619C22.2654 15.7519 21.9854 15.6919 21.7754 15.5219C20.6254 14.5219 18.8454 14.4819 17.6354 15.4519C17.0201 15.9404 16.6044 16.6367 16.4663 17.4101C16.3282 18.1834 16.4772 18.9806 16.8854 19.6519C16.9654 19.7919 17.0454 19.9019 17.1354 20.0119C17.2091 20.0957 17.2628 20.1951 17.2925 20.3026C17.3222 20.4102 17.3271 20.5231 17.3069 20.6328C17.2867 20.7425 17.2419 20.8463 17.1758 20.9362C17.1097 21.0261 17.0241 21.0998 16.9254 21.1519L15.0954 22.1619C14.4154 22.5619 13.5454 22.7519 12.6654 22.7519ZM12.6654 2.75188C12.0454 2.75188 11.4154 2.88187 10.9654 3.13187L5.62541 6.09188C4.65541 6.62187 3.81541 8.06187 3.81541 9.16187V14.8219C3.81541 15.9219 4.66541 17.3619 5.62541 17.8919L10.9654 20.8519C11.8754 21.3619 13.4654 21.3619 14.3754 20.8519L15.4954 20.2319C15.1191 19.5418 14.923 18.7679 14.9254 17.9819C14.9254 16.5219 15.5754 15.1719 16.7054 14.2719C18.0654 13.1819 20.0054 12.9519 21.5354 13.6019V9.14188C21.5354 8.04188 20.6854 6.60188 19.7254 6.07188L14.3854 3.11187C13.9154 2.88187 13.2854 2.75188 12.6654 2.75188Z" fill="#0F75BC"/>
<path d="M12.6654 22.7519C11.7854 22.7519 10.9054 22.5619 10.2254 22.1719L4.88541 19.2119C3.43541 18.4119 2.29541 16.4819 2.29541 14.8219V9.16187C2.29541 7.50187 3.43541 5.58187 4.88541 4.77187L10.2254 1.81187C11.5854 1.04188 13.7254 1.04188 15.0954 1.81187L20.4354 4.77187C21.8854 5.57188 23.0254 7.50187 23.0254 9.16187V14.8219C23.0254 14.9219 23.0254 15.0019 23.0054 15.1019C22.9554 15.3619 22.7654 15.5819 22.5154 15.6619C22.2654 15.7519 21.9854 15.6919 21.7754 15.5219C20.6254 14.5219 18.8454 14.4819 17.6354 15.4519C17.0201 15.9404 16.6044 16.6367 16.4663 17.4101C16.3282 18.1834 16.4772 18.9806 16.8854 19.6519C16.9654 19.7919 17.0454 19.9019 17.1354 20.0119C17.2091 20.0957 17.2628 20.1951 17.2925 20.3026C17.3222 20.4102 17.3271 20.5231 17.3069 20.6328C17.2867 20.7425 17.2419 20.8463 17.1758 20.9362C17.1097 21.0261 17.0241 21.0998 16.9254 21.1519L15.0954 22.1619C14.4154 22.5619 13.5454 22.7519 12.6654 22.7519ZM12.6654 2.75188C12.0454 2.75188 11.4154 2.88187 10.9654 3.13187L5.62541 6.09188C4.65541 6.62187 3.81541 8.06187 3.81541 9.16187V14.8219C3.81541 15.9219 4.66541 17.3619 5.62541 17.8919L10.9654 20.8519C11.8754 21.3619 13.4654 21.3619 14.3754 20.8519L15.4954 20.2319C15.1191 19.5418 14.923 18.7679 14.9254 17.9819C14.9254 16.5219 15.5754 15.1719 16.7054 14.2719C18.0654 13.1819 20.0054 12.9519 21.5354 13.6019V9.14188C21.5354 8.04188 20.6854 6.60188 19.7254 6.07188L14.3854 3.11187C13.9154 2.88187 13.2854 2.75188 12.6654 2.75188Z" fill="black" fill-opacity="0.2"/>
</g>
<defs>
<clipPath id="clip0_271_10362">
<rect width="24" height="24" fill="white" transform="translate(0.666504)"/>
</clipPath>
</defs>
</svg>
