<svg width="26" height="24" viewBox="0 0 26 24" fill="none" xmlns="http://www.w3.org/2000/svg">
<path d="M21.0179 6H18.5487V4.2C18.5487 1.88438 16.1811 0 13.2716 0C10.3622 0 7.99454 1.88438 7.99454 4.2V6H5.52534C3.55675 6 1.90619 7.22344 1.76558 8.78613L0.688523 20.7861C0.614169 21.6141 0.978587 22.4367 1.68975 23.0437C2.40018 23.6514 3.40509 24 4.44828 24H22.0949C23.1381 24 24.143 23.6514 24.8535 23.0437C25.5646 22.4367 25.929 21.6141 25.8547 20.7861L24.7776 8.78613C24.637 7.22344 22.9865 6 21.0179 6ZM9.50227 4.2C9.50227 2.5459 11.1933 1.2 13.2716 1.2C15.3499 1.2 17.0409 2.5459 17.0409 4.2V6H9.50227V4.2ZM23.7506 22.2264C23.3177 22.5961 22.7303 22.8 22.0949 22.8H4.44827C3.81294 22.8 3.22544 22.5961 2.79256 22.2264C2.36041 21.8566 2.14766 21.3756 2.19257 20.8717L3.26962 8.87167C3.35356 7.93418 4.34447 7.2 5.52534 7.2H21.0179C22.1987 7.2 23.1897 7.93418 23.2736 8.87168L24.3506 20.8717C24.3955 21.3756 24.1828 21.8566 23.7506 22.2264Z" fill="white"/>
</svg>
