<svg width="25" height="25" viewBox="0 0 25 25" fill="none" xmlns="http://www.w3.org/2000/svg">
<path d="M8.5 6.25C8.09 6.25 7.75 5.91 7.75 5.5V2.5C7.75 2.09 8.09 1.75 8.5 1.75C8.91 1.75 9.25 2.09 9.25 2.5V5.5C9.25 5.91 8.91 6.25 8.5 6.25ZM16.5 6.25C16.09 6.25 15.75 5.91 15.75 5.5V2.5C15.75 2.09 16.09 1.75 16.5 1.75C16.91 1.75 17.25 2.09 17.25 2.5V5.5C17.25 5.91 16.91 6.25 16.5 6.25ZM9 14.998C8.87 14.998 8.74 14.968 8.62 14.918C8.49 14.868 8.39 14.798 8.29 14.708C8.11 14.518 8 14.268 8 13.998C8 13.868 8.03 13.738 8.08 13.618C8.13 13.498 8.2 13.388 8.29 13.288C8.39 13.198 8.49 13.128 8.62 13.078C8.98 12.928 9.43 13.008 9.71 13.288C9.89 13.478 10 13.738 10 13.998C10 14.058 9.99 14.128 9.98 14.198C9.97 14.258 9.95 14.318 9.92 14.378C9.9 14.438 9.87 14.498 9.83 14.558C9.8 14.608 9.75 14.658 9.71 14.708C9.52 14.888 9.26 14.998 9 14.998ZM12.5 14.999C12.37 14.999 12.24 14.969 12.12 14.919C11.99 14.869 11.89 14.799 11.79 14.709C11.61 14.519 11.5 14.269 11.5 13.999C11.5 13.869 11.53 13.739 11.58 13.619C11.63 13.499 11.7 13.389 11.79 13.289C11.89 13.199 11.99 13.129 12.12 13.079C12.48 12.919 12.93 13.009 13.21 13.289C13.39 13.479 13.5 13.739 13.5 13.999C13.5 14.059 13.49 14.129 13.48 14.199C13.47 14.259 13.45 14.319 13.42 14.379C13.4 14.439 13.37 14.499 13.33 14.559C13.3 14.609 13.25 14.659 13.21 14.709C13.02 14.889 12.76 14.999 12.5 14.999ZM16 14.999C15.87 14.999 15.74 14.969 15.62 14.919C15.49 14.869 15.39 14.799 15.29 14.709L15.17 14.559C15.1321 14.5033 15.1019 14.4427 15.08 14.379C15.0511 14.3223 15.0309 14.2617 15.02 14.199C15.01 14.129 15 14.059 15 13.999C15 13.739 15.11 13.479 15.29 13.289C15.39 13.199 15.49 13.129 15.62 13.079C15.99 12.919 16.43 13.009 16.71 13.289C16.89 13.479 17 13.739 17 13.999C17 14.059 16.99 14.129 16.98 14.199C16.97 14.259 16.95 14.319 16.92 14.379C16.9 14.439 16.87 14.499 16.83 14.559C16.8 14.609 16.75 14.659 16.71 14.709C16.52 14.889 16.26 14.999 16 14.999ZM9 18.5C8.87 18.5 8.74 18.47 8.62 18.42C8.5 18.37 8.39 18.3 8.29 18.21C8.11 18.02 8 17.76 8 17.5C8 17.37 8.03 17.24 8.08 17.12C8.13 16.99 8.2 16.88 8.29 16.79C8.66 16.42 9.34 16.42 9.71 16.79C9.89 16.98 10 17.24 10 17.5C10 17.76 9.89 18.02 9.71 18.21C9.52 18.39 9.26 18.5 9 18.5ZM12.5 18.5C12.24 18.5 11.98 18.39 11.79 18.21C11.61 18.02 11.5 17.76 11.5 17.5C11.5 17.37 11.53 17.24 11.58 17.12C11.63 16.99 11.7 16.88 11.79 16.79C12.16 16.42 12.84 16.42 13.21 16.79C13.3 16.88 13.37 16.99 13.42 17.12C13.47 17.24 13.5 17.37 13.5 17.5C13.5 17.76 13.39 18.02 13.21 18.21C13.02 18.39 12.76 18.5 12.5 18.5ZM16 18.5C15.74 18.5 15.48 18.39 15.29 18.21C15.1975 18.1161 15.1259 18.0036 15.08 17.88C15.0286 17.7598 15.0015 17.6307 15 17.5C15 17.37 15.03 17.24 15.08 17.12C15.13 16.99 15.2 16.88 15.29 16.79C15.52 16.56 15.87 16.45 16.19 16.52C16.26 16.53 16.32 16.55 16.38 16.58C16.44 16.6 16.5 16.63 16.56 16.67C16.61 16.7 16.66 16.75 16.71 16.79C16.89 16.98 17 17.24 17 17.5C17 17.76 16.89 18.02 16.71 18.21C16.52 18.39 16.26 18.5 16 18.5ZM21 10.34H4C3.59 10.34 3.25 10 3.25 9.59C3.25 9.18 3.59 8.84 4 8.84H21C21.41 8.84 21.75 9.18 21.75 9.59C21.75 10 21.41 10.34 21 10.34Z" fill="#050226"/>
<path d="M8.5 6.25C8.09 6.25 7.75 5.91 7.75 5.5V2.5C7.75 2.09 8.09 1.75 8.5 1.75C8.91 1.75 9.25 2.09 9.25 2.5V5.5C9.25 5.91 8.91 6.25 8.5 6.25ZM16.5 6.25C16.09 6.25 15.75 5.91 15.75 5.5V2.5C15.75 2.09 16.09 1.75 16.5 1.75C16.91 1.75 17.25 2.09 17.25 2.5V5.5C17.25 5.91 16.91 6.25 16.5 6.25ZM9 14.998C8.87 14.998 8.74 14.968 8.62 14.918C8.49 14.868 8.39 14.798 8.29 14.708C8.11 14.518 8 14.268 8 13.998C8 13.868 8.03 13.738 8.08 13.618C8.13 13.498 8.2 13.388 8.29 13.288C8.39 13.198 8.49 13.128 8.62 13.078C8.98 12.928 9.43 13.008 9.71 13.288C9.89 13.478 10 13.738 10 13.998C10 14.058 9.99 14.128 9.98 14.198C9.97 14.258 9.95 14.318 9.92 14.378C9.9 14.438 9.87 14.498 9.83 14.558C9.8 14.608 9.75 14.658 9.71 14.708C9.52 14.888 9.26 14.998 9 14.998ZM12.5 14.999C12.37 14.999 12.24 14.969 12.12 14.919C11.99 14.869 11.89 14.799 11.79 14.709C11.61 14.519 11.5 14.269 11.5 13.999C11.5 13.869 11.53 13.739 11.58 13.619C11.63 13.499 11.7 13.389 11.79 13.289C11.89 13.199 11.99 13.129 12.12 13.079C12.48 12.919 12.93 13.009 13.21 13.289C13.39 13.479 13.5 13.739 13.5 13.999C13.5 14.059 13.49 14.129 13.48 14.199C13.47 14.259 13.45 14.319 13.42 14.379C13.4 14.439 13.37 14.499 13.33 14.559C13.3 14.609 13.25 14.659 13.21 14.709C13.02 14.889 12.76 14.999 12.5 14.999ZM16 14.999C15.87 14.999 15.74 14.969 15.62 14.919C15.49 14.869 15.39 14.799 15.29 14.709L15.17 14.559C15.1321 14.5033 15.1019 14.4427 15.08 14.379C15.0511 14.3223 15.0309 14.2617 15.02 14.199C15.01 14.129 15 14.059 15 13.999C15 13.739 15.11 13.479 15.29 13.289C15.39 13.199 15.49 13.129 15.62 13.079C15.99 12.919 16.43 13.009 16.71 13.289C16.89 13.479 17 13.739 17 13.999C17 14.059 16.99 14.129 16.98 14.199C16.97 14.259 16.95 14.319 16.92 14.379C16.9 14.439 16.87 14.499 16.83 14.559C16.8 14.609 16.75 14.659 16.71 14.709C16.52 14.889 16.26 14.999 16 14.999ZM9 18.5C8.87 18.5 8.74 18.47 8.62 18.42C8.5 18.37 8.39 18.3 8.29 18.21C8.11 18.02 8 17.76 8 17.5C8 17.37 8.03 17.24 8.08 17.12C8.13 16.99 8.2 16.88 8.29 16.79C8.66 16.42 9.34 16.42 9.71 16.79C9.89 16.98 10 17.24 10 17.5C10 17.76 9.89 18.02 9.71 18.21C9.52 18.39 9.26 18.5 9 18.5ZM12.5 18.5C12.24 18.5 11.98 18.39 11.79 18.21C11.61 18.02 11.5 17.76 11.5 17.5C11.5 17.37 11.53 17.24 11.58 17.12C11.63 16.99 11.7 16.88 11.79 16.79C12.16 16.42 12.84 16.42 13.21 16.79C13.3 16.88 13.37 16.99 13.42 17.12C13.47 17.24 13.5 17.37 13.5 17.5C13.5 17.76 13.39 18.02 13.21 18.21C13.02 18.39 12.76 18.5 12.5 18.5ZM16 18.5C15.74 18.5 15.48 18.39 15.29 18.21C15.1975 18.1161 15.1259 18.0036 15.08 17.88C15.0286 17.7598 15.0015 17.6307 15 17.5C15 17.37 15.03 17.24 15.08 17.12C15.13 16.99 15.2 16.88 15.29 16.79C15.52 16.56 15.87 16.45 16.19 16.52C16.26 16.53 16.32 16.55 16.38 16.58C16.44 16.6 16.5 16.63 16.56 16.67C16.61 16.7 16.66 16.75 16.71 16.79C16.89 16.98 17 17.24 17 17.5C17 17.76 16.89 18.02 16.71 18.21C16.52 18.39 16.26 18.5 16 18.5ZM21 10.34H4C3.59 10.34 3.25 10 3.25 9.59C3.25 9.18 3.59 8.84 4 8.84H21C21.41 8.84 21.75 9.18 21.75 9.59C21.75 10 21.41 10.34 21 10.34Z" fill="white" fill-opacity="0.35"/>
<path d="M16.5 23.25H8.5C4.85 23.25 2.75 21.15 2.75 17.5V9C2.75 5.35 4.85 3.25 8.5 3.25H16.5C20.15 3.25 22.25 5.35 22.25 9V17.5C22.25 21.15 20.15 23.25 16.5 23.25ZM8.5 4.75C5.64 4.75 4.25 6.14 4.25 9V17.5C4.25 20.36 5.64 21.75 8.5 21.75H16.5C19.36 21.75 20.75 20.36 20.75 17.5V9C20.75 6.14 19.36 4.75 16.5 4.75H8.5Z" fill="#050226"/>
<path d="M16.5 23.25H8.5C4.85 23.25 2.75 21.15 2.75 17.5V9C2.75 5.35 4.85 3.25 8.5 3.25H16.5C20.15 3.25 22.25 5.35 22.25 9V17.5C22.25 21.15 20.15 23.25 16.5 23.25ZM8.5 4.75C5.64 4.75 4.25 6.14 4.25 9V17.5C4.25 20.36 5.64 21.75 8.5 21.75H16.5C19.36 21.75 20.75 20.36 20.75 17.5V9C20.75 6.14 19.36 4.75 16.5 4.75H8.5Z" fill="white" fill-opacity="0.35"/>
</svg>
