<svg width="61" height="60" viewBox="0 0 61 60" fill="none" xmlns="http://www.w3.org/2000/svg">
<path d="M30.5 56.8751C23.3723 56.8751 16.5365 54.0437 11.4965 49.0036C6.45647 43.9636 3.625 37.1278 3.625 30.0001C3.625 22.8725 6.45647 16.0367 11.4965 10.9966C16.5365 5.95661 23.3723 3.12514 30.5 3.12514C34.6882 3.11128 38.8192 4.0969 42.55 6.00014C42.77 6.11177 42.9658 6.26562 43.1263 6.45293C43.2868 6.64023 43.4088 6.85731 43.4854 7.09178C43.5621 7.32625 43.5917 7.57351 43.5728 7.81945C43.5538 8.06538 43.4866 8.30518 43.375 8.52514C43.2634 8.74511 43.1095 8.94093 42.9222 9.10144C42.7349 9.26194 42.5178 9.38398 42.2834 9.46059C42.0489 9.5372 41.8016 9.56687 41.5557 9.54792C41.3098 9.52897 41.07 9.46177 40.85 9.35014C37.6497 7.70074 34.1003 6.8434 30.5 6.85014C25.9274 6.85015 21.4574 8.20578 17.655 10.7457C13.8527 13.2856 10.8887 16.8957 9.13769 21.1198C7.38668 25.3439 6.92727 29.9923 7.81753 34.4774C8.70779 38.9626 10.9077 43.0831 14.1393 46.3181C17.3709 49.5532 21.4891 51.7576 25.9732 52.6527C30.4574 53.5479 35.1063 53.0935 39.3322 51.347C43.5582 49.6006 47.1716 46.6405 49.7156 42.8409C52.2596 39.0413 53.6201 34.5728 53.625 30.0001C53.638 29.792 53.638 29.5833 53.625 29.3751C53.5786 28.8779 53.7316 28.3825 54.0504 27.9981C54.3692 27.6136 54.8277 27.3716 55.325 27.3251C55.8223 27.2787 56.3176 27.4318 56.7021 27.7506C57.0865 28.0694 57.3286 28.5279 57.375 29.0251V30.0001C57.3684 37.1258 54.5348 43.9577 49.4962 48.9963C44.4576 54.0349 37.6257 56.8685 30.5 56.8751Z" fill="#20BF55"/>
<path d="M30.0503 38.5252C29.8073 38.5288 29.5662 38.4818 29.3424 38.3871C29.1186 38.2924 28.9169 38.1521 28.7503 37.9752L16.6753 26.1252C16.3242 25.7736 16.127 25.2971 16.127 24.8002C16.127 24.3033 16.3242 23.8268 16.6753 23.4752C17.0342 23.1285 17.5138 22.9347 18.0128 22.9347C18.5118 22.9347 18.9914 23.1285 19.3503 23.4752L30.0753 34.0502L54.2003 10.3252C54.5592 9.97847 55.0388 9.78467 55.5378 9.78467C56.0368 9.78467 56.5164 9.97847 56.8753 10.3252C57.2264 10.6768 57.4237 11.1533 57.4237 11.6502C57.4237 12.1471 57.2264 12.6236 56.8753 12.9752L31.4253 37.9752C31.2464 38.1566 31.0318 38.2992 30.7952 38.3938C30.5586 38.4884 30.305 38.5332 30.0503 38.5252Z" fill="#20BF55"/>
</svg>
