<svg width="28" height="28" viewBox="0 0 28 28" fill="none" xmlns="http://www.w3.org/2000/svg">
<path d="M1.9075 5.25C2.67313 5.25 3.29438 5.87125 3.29438 6.63688L3.2935 6.89675H10.206C11.1545 6.89675 11.6139 7.1645 12.3279 8.06925L12.4565 8.2355L13.8652 10.1911H26.4792C27.3193 10.1911 28 10.885 28 11.7416V21.8173C28 22.6739 27.3193 23.3678 26.4792 23.3678H9.75625C8.91625 23.3678 8.23637 22.6739 8.23637 21.8173L8.2355 17.2226H7.028C6.3035 17.2226 5.61313 16.8928 4.97175 16.3538C4.8265 16.2313 4.69088 16.1044 4.56488 15.9749L4.34613 15.7378L4.29362 15.6765H3.26463C3.13337 16.3065 2.57512 16.779 1.9075 16.779H1.38688C0.62125 16.779 0 16.1578 0 15.3921V6.63688C0 5.87125 0.62125 5.25 1.38688 5.25H1.9075ZM26.4215 11.0145H10.6461L13.2493 13.384C13.9379 14.0105 13.5424 14.8418 12.6595 15.2696C11.893 15.6415 10.9524 15.6529 10.2042 15.1891L10.0573 15.0903L9.058 14.1811V21.7761C9.058 22.1996 9.39662 22.5444 9.814 22.5444H26.4215C26.8389 22.5444 27.1766 22.1996 27.1766 21.7753V11.7828C27.1766 11.3593 26.8389 11.0145 26.4215 11.0145ZM3.2935 14.8531H4.69875L4.84925 15.057L4.93762 15.1638L4.99887 15.2338C5.14762 15.4 5.31562 15.568 5.50025 15.7238C5.957 16.107 6.426 16.3476 6.8775 16.3923L7.02625 16.3993H8.23462V14.0998H7.68687C6.77688 14.0998 6.13112 13.7865 5.74525 13.2431L5.6665 13.1233C5.45738 12.7776 5.37425 12.4294 5.35675 12.0864L5.35325 11.9394H6.17575C6.17575 12.1931 6.22563 12.4565 6.37175 12.6971C6.573 13.0314 6.92737 13.2396 7.51975 13.272L7.686 13.2764H9.28725L10.577 14.4524C11.0434 14.7919 11.7381 14.8015 12.3007 14.5285C12.7382 14.3159 12.8328 14.1173 12.6954 13.993L9.87787 11.4293L9.88138 10.423V10.1911L12.8966 10.1929L11.8379 8.72463C11.1956 7.882 10.9375 7.71225 10.206 7.71225H3.2935V14.8531ZM1.9075 5.94388H1.38688C1.03338 5.94388 0.742 6.20812 0.699125 6.55025L0.693875 6.63775V15.3913C0.693875 15.7448 0.958125 16.037 1.30025 16.0799L1.38775 16.0851H1.9075C2.261 16.0851 2.55238 15.8209 2.59525 15.4788L2.6005 15.3913V6.63688C2.6005 6.28338 2.33625 5.992 1.99413 5.94913L1.90662 5.94388H1.9075Z" fill="#242424"/>
<path d="M18.1178 20.8957C20.3919 20.8957 22.2355 19.0521 22.2355 16.7779C22.2355 14.5037 20.3919 12.6602 18.1178 12.6602C15.8436 12.6602 14 14.5037 14 16.7779C14 19.0521 15.8436 20.8957 18.1178 20.8957Z" fill="#0D5CB6"/>
<path d="M18.8954 16.6448L17.5444 16.3193C17.3432 16.2712 17.2032 16.1146 17.2032 15.9396C17.2032 15.7208 17.4132 15.5441 17.6722 15.5441H18.5166C18.7047 15.5441 18.8841 15.594 19.0337 15.6858C19.1028 15.727 19.1999 15.7138 19.2594 15.6631L19.5202 15.4426C19.6007 15.3752 19.5876 15.265 19.4974 15.2063C19.2174 15.0252 18.8762 14.9263 18.5166 14.9263H18.4842V14.4626C18.4842 14.3786 18.4028 14.3086 18.3004 14.3086H17.9347C17.8341 14.3086 17.7518 14.3777 17.7518 14.4626V14.9263H17.6713C16.9713 14.9263 16.4096 15.4338 16.4761 16.0358C16.5233 16.4637 16.9118 16.8102 17.4018 16.9283L18.6924 17.239C18.8928 17.2871 19.0337 17.4437 19.0337 17.6187C19.0337 17.8375 18.8228 18.0142 18.5647 18.0142H17.7203C17.5322 18.0142 17.3528 17.9652 17.2023 17.8733C17.1341 17.8313 17.0378 17.8453 16.9774 17.8952L16.7167 18.1157C16.6362 18.1831 16.6493 18.2933 16.7386 18.352C17.0194 18.534 17.3607 18.632 17.7203 18.632H17.7518V19.0957C17.7518 19.1806 17.8341 19.2497 17.9356 19.2497H18.3013C18.4019 19.2497 18.4842 19.1806 18.4842 19.0957V18.632H18.5148C19.0372 18.632 19.5298 18.3695 19.6978 17.953C19.9306 17.3807 19.5316 16.7988 18.8946 16.6448H18.8954Z" fill="white"/>
</svg>
