<svg width="28" height="28" viewBox="0 0 28 28" fill="none" xmlns="http://www.w3.org/2000/svg">
<mask id="mask0_737_10433" style="mask-type:alpha" maskUnits="userSpaceOnUse" x="2" y="2" width="24" height="24">
<path d="M9.3555 2.625H18.6445C20.9851 2.625 21.8339 2.86825 22.6896 3.32588C23.5445 3.7835 24.2165 4.45462 24.6741 5.31037C25.1318 6.16612 25.375 7.01488 25.375 9.3555V18.6445C25.375 20.9851 25.1318 21.8339 24.6741 22.6896C24.2165 23.5445 23.5454 24.2165 22.6896 24.6741C21.8339 25.1318 20.9851 25.375 18.6445 25.375H9.3555C7.01488 25.375 6.16612 25.1318 5.31037 24.6741C4.4555 24.2165 3.7835 23.5454 3.32588 22.6896C2.86825 21.8339 2.625 20.9851 2.625 18.6445V9.3555C2.625 7.01488 2.86825 6.16612 3.32588 5.31037C3.7835 4.4555 4.45462 3.7835 5.31037 3.32588C6.16612 2.86825 7.01488 2.625 9.3555 2.625Z" fill="white"/>
</mask>
<g mask="url(#mask0_737_10433)">
<path d="M9.3555 2.625H18.6445C20.9851 2.625 21.8339 2.86825 22.6896 3.32588C23.5445 3.7835 24.2165 4.45462 24.6741 5.31037C25.1318 6.16612 25.375 7.01488 25.375 9.3555V18.6445C25.375 20.9851 25.1318 21.8339 24.6741 22.6896C24.2165 23.5445 23.5454 24.2165 22.6896 24.6741C21.8339 25.1318 20.9851 25.375 18.6445 25.375H9.3555C7.01488 25.375 6.16612 25.1318 5.31037 24.6741C4.4555 24.2165 3.7835 23.5454 3.32588 22.6896C2.86825 21.8339 2.625 20.9851 2.625 18.6445V9.3555C2.625 7.01488 2.86825 6.16612 3.32588 5.31037C3.7835 4.4555 4.45462 3.7835 5.31037 3.32588C6.16612 2.86825 7.01488 2.625 9.3555 2.625Z" fill="#A50064"/>
<path d="M18.5168 7C16.6618 7 15.1594 8.414 15.1594 10.1579C15.1594 11.9026 16.6626 13.3166 18.5168 13.3166C20.3718 13.3166 21.875 11.9026 21.875 10.1579C21.875 8.414 20.3718 7 18.5168 7ZM18.5168 11.5062C17.7301 11.5062 17.0905 10.9042 17.0905 10.1649C17.0905 9.42462 17.7301 8.8235 18.5168 8.8235C19.3043 8.8235 19.943 9.42462 19.943 10.1649C19.943 10.9042 19.3043 11.5062 18.5168 11.5062ZM14.1899 13.3228H12.2579V9.352C12.2579 9.0545 12.0041 8.81737 11.6891 8.81737C11.3724 8.81737 11.1204 9.0545 11.1204 9.352V13.3228H9.1875V9.352C9.1875 9.0545 8.93375 8.81737 8.61875 8.81737C8.302 8.81737 8.04913 9.0545 8.04913 9.352V13.3228H6.125V9.37213C6.125 8.064 7.25637 7 8.64675 7C9.2155 7 9.73612 7.1785 10.157 7.476C10.6435 7.1575 11.1475 7 11.6672 7C13.0585 7 14.1899 8.064 14.1899 9.37125V13.3228ZM18.5168 14.6842C16.6618 14.6842 15.1594 16.0974 15.1594 17.8421C15.1594 19.586 16.6626 21 18.5168 21C20.3718 21 21.875 19.586 21.875 17.8412C21.875 16.0974 20.3718 14.6834 18.5168 14.6834V14.6842ZM11.6681 14.6764C13.0594 14.6764 14.1899 15.7404 14.1899 17.0476V21H12.2579V17.0293C12.2579 16.7317 12.0041 16.4946 11.6891 16.4946C11.3724 16.4946 11.1204 16.7326 11.1204 17.0293V21H9.1875V17.0293C9.1875 16.7317 8.93375 16.4946 8.61875 16.4946C8.302 16.4946 8.04913 16.7326 8.04913 17.0293V21H6.125V17.0494C6.125 15.7413 7.25637 14.6781 8.64675 14.6781C9.2155 14.6781 9.73612 14.8558 10.157 15.1533C10.6435 14.8356 11.1475 14.6772 11.6672 14.6772L11.6681 14.6764ZM18.5168 16.5077C19.3043 16.5077 19.943 17.1089 19.943 17.8483C19.943 18.5885 19.3043 19.1896 18.5168 19.1896C17.7301 19.1896 17.0905 18.5885 17.0905 17.8483C17.0905 17.1089 17.7301 16.5077 18.5168 16.5077Z" fill="white"/>
</g>
</svg>
