<svg width="28" height="28" viewBox="0 0 28 28" fill="none" xmlns="http://www.w3.org/2000/svg">
<path d="M6.86 6.35425L23.5226 3.91825C22.5916 3.11238 21.3789 2.625 20.055 2.625H7.92312C4.99275 2.625 2.625 4.99887 2.625 7.92312V20.055C2.625 22.6852 4.543 24.8719 7.05425 25.284L4.85625 9.05975C4.669 7.76038 5.58075 6.54238 6.86175 6.35425H6.86Z" fill="#118ACB"/>
<path d="M23.5226 3.91821L6.85998 6.35421C5.57898 6.54234 4.66723 7.76034 4.85448 9.05971L7.05335 25.284C7.33423 25.3277 7.62823 25.3592 7.92223 25.3592H20.055C22.9854 25.3592 25.3531 22.9853 25.3531 20.0611V7.92309C25.3531 6.32359 24.647 4.89296 23.5226 3.91821Z" fill="white"/>
<path d="M23.5225 3.91821L23.4656 3.93046C24.6093 4.93059 25.2961 6.40496 25.2961 7.92309V20.0366C25.2961 22.9346 22.9345 25.2962 20.0365 25.2962H7.91602C7.64127 25.2962 7.32277 25.2656 7.04102 25.2218L7.04802 25.284C7.34202 25.3338 7.62289 25.3592 7.90989 25.3592H20.0234C22.9599 25.3592 25.346 22.9722 25.346 20.0366V7.92309C25.353 6.37346 24.6898 4.93059 23.5225 3.91821Z" fill="#C7C7C7" stroke="#C7C7C7" stroke-width="0.1"/>
<path d="M16.7822 10.1722C16.6754 10.0664 16.5573 10.0095 16.3884 10.0095C16.1635 10.0095 15.9947 10.1162 15.8949 10.3411C15.67 10.0725 15.3577 9.94737 14.9639 9.94737C14.4888 9.94737 14.0959 10.1346 13.7652 10.4846C13.4327 10.8591 13.29 11.2905 13.29 11.8094C13.29 12.3274 13.4519 12.7771 13.7643 13.1332C14.0959 13.5086 14.4888 13.6705 14.9639 13.6705C15.3577 13.6705 15.6639 13.5462 15.8949 13.2767C16.0008 13.5025 16.1635 13.6084 16.3884 13.6084C16.5503 13.6084 16.6754 13.5462 16.7822 13.4456C16.888 13.3459 16.9257 13.2207 16.9257 13.0519V10.51C16.944 10.4225 16.8819 10.2781 16.7822 10.1722ZM15.6639 12.4647C15.5388 12.6275 15.3515 12.715 15.1267 12.715C14.9018 12.715 14.7137 12.6336 14.5894 12.4647C14.4643 12.3029 14.3829 12.0902 14.3829 11.8216C14.3829 11.5714 14.445 11.3657 14.5894 11.203C14.7137 11.0402 14.9018 10.9536 15.1267 10.9536C15.3515 10.9536 15.5379 11.0341 15.6639 11.203C15.7882 11.3657 15.8695 11.5775 15.8695 11.8216C15.8512 12.0719 15.7882 12.3029 15.6639 12.4647ZM18.1629 13.4771C18.0562 13.583 17.938 13.6399 17.7692 13.6399C17.6064 13.6399 17.4813 13.5769 17.3754 13.4771C17.2695 13.3712 17.2319 13.2522 17.2319 13.0834V8.53512C17.2319 8.39162 17.2757 8.26649 17.3754 8.14137C17.4813 8.03637 17.6003 7.97949 17.7692 7.97949C17.931 7.97949 18.0562 8.04162 18.1629 8.14224C18.2679 8.24812 18.3064 8.36712 18.3064 8.53599V13.0834C18.3064 13.2522 18.2688 13.3774 18.1629 13.4771ZM21.7364 10.503C21.3864 10.1285 20.9489 9.96574 20.4117 9.96574C19.8744 9.96574 19.443 10.1539 19.0869 10.503C18.7562 10.853 18.5689 11.3089 18.5689 11.847C18.5689 12.3842 18.7308 12.8147 19.0869 13.1901C19.4185 13.5401 19.8744 13.7274 20.4117 13.7274C20.9489 13.7274 21.3803 13.5392 21.7355 13.1901C22.0672 12.8401 22.2299 12.3842 22.2299 11.8654C22.2544 11.3089 22.0917 10.853 21.7355 10.503H21.7364ZM20.9734 12.4647C20.8492 12.6275 20.661 12.715 20.4362 12.715C20.2113 12.715 20.0249 12.6336 19.8989 12.4647C19.7747 12.3029 19.6933 12.0902 19.6933 11.8216C19.6933 11.5714 19.7554 11.3657 19.8989 11.203C20.024 11.0402 20.2113 10.9536 20.4362 10.9536C20.661 10.9536 20.8492 11.0341 20.9734 11.203C21.0985 11.3657 21.1799 11.5775 21.1799 11.8216C21.1615 12.0719 21.0985 12.3029 20.9734 12.4647Z" fill="#118ACB"/>
<path d="M12.6896 10.0908C13.0641 9.59729 13.2706 9.26654 13.2706 9.09767C13.2706 8.70392 13.0213 8.49829 12.5269 8.49829H9.90364C9.69627 8.49829 9.52827 8.54204 9.42852 8.64179C9.32264 8.74767 9.26577 8.86667 9.26577 9.01629C9.26577 9.17904 9.32877 9.30417 9.42852 9.39167C9.53527 9.49667 9.69714 9.53517 9.90364 9.53517H11.7026L9.39089 12.5084C9.24739 12.6965 9.16602 12.8838 9.16602 13.0273C9.16602 13.4587 9.45389 13.6704 10.0349 13.6704H12.7395C13.1709 13.6704 13.3835 13.4832 13.3835 13.1332C13.3835 12.7587 13.177 12.5959 12.7395 12.5959H10.7533L12.6888 10.0908H12.6896Z" fill="#118ACB"/>
<path d="M11.4015 16.5188H10.7207V17.9249H11.4015C11.608 17.9249 11.7768 17.8619 11.895 17.7184C12.0201 17.5933 12.0831 17.406 12.0831 17.2249C12.0831 17.0184 12.0201 16.8504 11.895 16.7314C11.7768 16.5818 11.615 16.5188 11.4015 16.5188ZM14.7755 17.8182C14.569 17.8182 14.4001 17.8995 14.282 18.043C14.1568 18.2058 14.0947 18.3931 14.0947 18.6241C14.0947 18.8559 14.156 19.0554 14.282 19.2051C14.4071 19.3678 14.569 19.4299 14.7755 19.4299C14.9811 19.4299 15.15 19.3494 15.269 19.2051C15.3941 19.0432 15.4562 18.8551 15.4562 18.6241C15.4562 18.3992 15.3941 18.1935 15.269 18.043C15.1438 17.8995 14.9811 17.8182 14.7755 17.8182Z" fill="#39B54A"/>
<path d="M19.5308 14.5139H9.75182C9.42195 14.5139 9.15332 14.7825 9.15332 15.1142V20.8367C9.15332 21.1674 9.42195 21.436 9.7527 21.436H17.4614C17.3809 21.3547 17.3372 21.2742 17.3372 21.1674C17.3372 21.086 17.3564 21.0055 17.3993 20.8988L17.7747 20.0938L16.7623 17.5694C16.7439 17.5064 16.7186 17.4259 16.7186 17.3445C16.7186 17.2378 16.7623 17.138 16.8621 17.0759C16.9434 16.9945 17.0502 16.9508 17.1499 16.9508C17.3748 16.9508 17.5244 17.0567 17.6058 17.2815L18.2244 19L18.8868 17.2815C18.9682 17.0759 19.1117 16.9508 19.3427 16.9508C19.4486 16.9508 19.5492 16.9945 19.6297 17.0759C19.7111 17.1573 19.7741 17.2378 19.7741 17.3445C19.7741 17.4259 19.7548 17.5064 19.7303 17.5694L18.2428 21.1867C18.1991 21.2925 18.1623 21.3739 18.0993 21.436H19.5238C19.8546 21.436 20.1232 21.1674 20.1232 20.8367V15.1142C20.1232 14.7642 19.8546 14.5139 19.5299 14.5139H19.5308ZM12.6271 18.356C12.3147 18.6439 11.9271 18.769 11.4712 18.769H10.7274V19.8435C10.7274 20.0054 10.6837 20.1305 10.5839 20.218C10.5026 20.2994 10.3774 20.3615 10.2339 20.3615C10.0904 20.3615 9.96532 20.3178 9.88395 20.218C9.80345 20.1367 9.74045 19.9932 9.74045 19.8435V16.1257C9.74045 15.7757 9.9032 15.6077 10.2593 15.6077H11.4406C11.9332 15.6077 12.3269 15.7512 12.6577 16.039C12.9701 16.326 13.1328 16.7198 13.1328 17.1757C13.1206 17.6945 12.9578 18.069 12.6271 18.3569V18.356ZM16.4508 19.8243C16.4508 19.9678 16.4071 20.0745 16.3064 20.1743C16.2006 20.2802 16.0999 20.3178 15.9564 20.3178C15.7508 20.3178 15.5819 20.2119 15.4822 20.0054C15.2757 20.2557 14.9887 20.3808 14.6133 20.3808C14.1828 20.3808 13.8083 20.218 13.5196 19.8873C13.2326 19.5557 13.0646 19.1435 13.0646 18.65C13.0646 18.1565 13.2081 17.7628 13.5196 17.4128C13.8083 17.082 14.1828 16.9193 14.6133 16.9193C14.9887 16.9193 15.2573 17.0444 15.4822 17.2947C15.5881 17.0882 15.7316 16.9823 15.9564 16.9823C16.0999 16.9823 16.2251 17.026 16.3064 17.1258C16.4123 17.2317 16.4499 17.3314 16.4499 17.4758V19.8243H16.4508Z" fill="#39B54A"/>
</svg>
