<svg width="24" height="24" viewBox="0 0 24 24" fill="none" xmlns="http://www.w3.org/2000/svg">
<g clip-path="url(#clip0_492_27316)">
<path d="M23.7755 22.7148L17.4286 16.368C20.7751 12.4777 20.6051 6.58563 16.9183 2.89886C13.0531 -0.96631 6.76405 -0.966264 2.89888 2.89886C-0.966293 6.76399 -0.966293 13.0531 2.89888 16.9182C4.66771 18.6827 7.03686 19.7153 9.5335 19.8098C12.0301 19.9044 14.4706 19.054 16.3678 17.4284L22.7147 23.7753C22.8559 23.9133 23.0458 23.9902 23.2433 23.9891C23.4407 23.9879 23.6298 23.909 23.7694 23.7694C23.909 23.6298 23.988 23.4407 23.9891 23.2433C23.9902 23.0458 23.9134 22.8559 23.7753 22.7147L23.7755 22.7148ZM9.90843 18.3176C8.80368 18.3195 7.70944 18.1032 6.68854 17.681C5.66763 17.2589 4.74016 16.6392 3.95938 15.8576C0.679066 12.5773 0.679066 7.23981 3.95938 3.9595C7.23969 0.679189 12.5771 0.679189 15.8575 3.9595C19.1379 7.23981 19.1378 12.5773 15.8575 15.8576C15.0768 16.6394 14.1494 17.2591 13.1285 17.6813C12.1075 18.1035 11.0132 18.3197 9.90843 18.3176Z" fill="white"/>
</g>
<defs>
<clipPath id="clip0_492_27316">
<rect width="24" height="24" fill="white"/>
</clipPath>
</defs>
</svg>
