<svg width="16" height="16" viewBox="0 0 16 16" fill="none" xmlns="http://www.w3.org/2000/svg">
<path d="M15.8503 15.1432L11.6191 10.912C13.8501 8.31845 13.7367 4.39042 11.2788 1.93257C8.70205 -0.644207 4.50937 -0.644176 1.93259 1.93257C-0.644195 4.50932 -0.644195 8.70207 1.93259 11.2788C3.1118 12.4551 4.69124 13.1435 6.35566 13.2066C8.02009 13.2696 9.64707 12.7027 10.9119 11.6189L15.1432 15.8502C15.2373 15.9422 15.3639 15.9934 15.4955 15.9927C15.6272 15.992 15.7532 15.9393 15.8463 15.8463C15.9394 15.7532 15.992 15.6271 15.9927 15.4955C15.9935 15.3639 15.9422 15.2373 15.8502 15.1431L15.8503 15.1432ZM6.60562 12.2118C5.86912 12.213 5.13963 12.0688 4.45903 11.7873C3.77842 11.5059 3.16011 11.0928 2.63959 10.5718C0.452711 8.38489 0.452711 4.82654 2.63959 2.63967C4.82646 0.452793 8.38474 0.452793 10.5717 2.63967C12.7586 4.82654 12.7585 8.38489 10.5717 10.5718C10.0512 11.0929 9.43293 11.5061 8.7523 11.7875C8.07168 12.069 7.34214 12.2131 6.60562 12.2118Z" fill="#050226"/>
<path d="M15.8503 15.1432L11.6191 10.912C13.8501 8.31845 13.7367 4.39042 11.2788 1.93257C8.70205 -0.644207 4.50937 -0.644176 1.93259 1.93257C-0.644195 4.50932 -0.644195 8.70207 1.93259 11.2788C3.1118 12.4551 4.69124 13.1435 6.35566 13.2066C8.02009 13.2696 9.64707 12.7027 10.9119 11.6189L15.1432 15.8502C15.2373 15.9422 15.3639 15.9934 15.4955 15.9927C15.6272 15.992 15.7532 15.9393 15.8463 15.8463C15.9394 15.7532 15.992 15.6271 15.9927 15.4955C15.9935 15.3639 15.9422 15.2373 15.8502 15.1431L15.8503 15.1432ZM6.60562 12.2118C5.86912 12.213 5.13963 12.0688 4.45903 11.7873C3.77842 11.5059 3.16011 11.0928 2.63959 10.5718C0.452711 8.38489 0.452711 4.82654 2.63959 2.63967C4.82646 0.452793 8.38474 0.452793 10.5717 2.63967C12.7586 4.82654 12.7585 8.38489 10.5717 10.5718C10.0512 11.0929 9.43293 11.5061 8.7523 11.7875C8.07168 12.069 7.34214 12.2131 6.60562 12.2118Z" fill="white" fill-opacity="0.65"/>
</svg>
