<svg width="24" height="24" viewBox="0 0 24 24" fill="none" xmlns="http://www.w3.org/2000/svg">
<path d="M11.74 17.7504H17.66C17.57 17.8304 17.48 17.9004 17.39 17.9804L13.12 21.1804C11.71 22.2304 9.41 22.2304 7.99 21.1804L3.71 17.9804C2.77 17.2804 2 15.7304 2 14.5604V7.15035C2 5.93035 2.93 4.58035 4.07 4.15035L9.05 2.28035C9.87 1.97035 11.23 1.97035 12.05 2.28035L17.02 4.15035C17.97 4.51035 18.78 5.51035 19.03 6.53035H11.73C11.51 6.53035 11.31 6.54035 11.12 6.54035C9.27 6.65035 8.79 7.32035 8.79 9.43035V14.8604C8.8 17.1604 9.39 17.7504 11.74 17.7504Z" stroke="#0F75BC" stroke-width="1.5" stroke-linecap="round" stroke-linejoin="round"/>
<path d="M11.74 17.7504H17.66C17.57 17.8304 17.48 17.9004 17.39 17.9804L13.12 21.1804C11.71 22.2304 9.41 22.2304 7.99 21.1804L3.71 17.9804C2.77 17.2804 2 15.7304 2 14.5604V7.15035C2 5.93035 2.93 4.58035 4.07 4.15035L9.05 2.28035C9.87 1.97035 11.23 1.97035 12.05 2.28035L17.02 4.15035C17.97 4.51035 18.78 5.51035 19.03 6.53035H11.73C11.51 6.53035 11.31 6.54035 11.12 6.54035C9.27 6.65035 8.79 7.32035 8.79 9.43035V14.8604C8.8 17.1604 9.39 17.7504 11.74 17.7504Z" stroke="black" stroke-opacity="0.2" stroke-width="1.5" stroke-linecap="round" stroke-linejoin="round"/>
<path d="M8.7998 11.2197H21.9998" stroke="#0F75BC" stroke-width="1.5" stroke-miterlimit="10" stroke-linecap="round" stroke-linejoin="round"/>
<path d="M8.7998 11.2197H21.9998" stroke="black" stroke-opacity="0.2" stroke-width="1.5" stroke-miterlimit="10" stroke-linecap="round" stroke-linejoin="round"/>
<path d="M21.9998 9.41977V14.9698C21.9798 17.1898 21.3698 17.7398 19.0598 17.7398H11.7398C9.3898 17.7398 8.7998 17.1498 8.7998 14.8398V9.40977C8.7998 7.30977 9.2798 6.63977 11.1298 6.51977C11.3198 6.51977 11.5198 6.50977 11.7398 6.50977H19.0598C21.4098 6.51977 21.9998 7.09977 21.9998 9.41977Z" stroke="#0F75BC" stroke-width="1.5" stroke-linecap="round" stroke-linejoin="round"/>
<path d="M21.9998 9.41977V14.9698C21.9798 17.1898 21.3698 17.7398 19.0598 17.7398H11.7398C9.3898 17.7398 8.7998 17.1498 8.7998 14.8398V9.40977C8.7998 7.30977 9.2798 6.63977 11.1298 6.51977C11.3198 6.51977 11.5198 6.50977 11.7398 6.50977H19.0598C21.4098 6.51977 21.9998 7.09977 21.9998 9.41977Z" stroke="black" stroke-opacity="0.2" stroke-width="1.5" stroke-linecap="round" stroke-linejoin="round"/>
<path d="M11.3198 15.2598H12.6498M14.7498 15.2598H18.0198" stroke="#0F75BC" stroke-width="1.5" stroke-miterlimit="10" stroke-linecap="round" stroke-linejoin="round"/>
<path d="M11.3198 15.2598H12.6498M14.7498 15.2598H18.0198" stroke="black" stroke-opacity="0.2" stroke-width="1.5" stroke-miterlimit="10" stroke-linecap="round" stroke-linejoin="round"/>
</svg>
