<svg width="25" height="24" viewBox="0 0 25 24" fill="none" xmlns="http://www.w3.org/2000/svg">
<path d="M9.33301 22H15.333C20.333 22 22.333 20 22.333 15V9C22.333 4 20.333 2 15.333 2H9.33301C4.33301 2 2.33301 4 2.33301 9V15C2.33301 20 4.33301 22 9.33301 22Z" stroke="#0F75BC" stroke-width="1.5" stroke-linecap="round" stroke-linejoin="round"/>
<path d="M9.33301 22H15.333C20.333 22 22.333 20 22.333 15V9C22.333 4 20.333 2 15.333 2H9.33301C4.33301 2 2.33301 4 2.33301 9V15C2.33301 20 4.33301 22 9.33301 22Z" stroke="black" stroke-opacity="0.2" stroke-width="1.5" stroke-linecap="round" stroke-linejoin="round"/>
<path d="M14.4431 16.8603L17.4831 13.8203H7.18311" stroke="#0F75BC" stroke-width="1.5" stroke-miterlimit="10" stroke-linecap="round" stroke-linejoin="round"/>
<path d="M14.4431 16.8603L17.4831 13.8203H7.18311" stroke="black" stroke-opacity="0.2" stroke-width="1.5" stroke-miterlimit="10" stroke-linecap="round" stroke-linejoin="round"/>
<path d="M10.2231 7.13965L7.18311 10.1796H17.4831" stroke="#0F75BC" stroke-width="1.5" stroke-miterlimit="10" stroke-linecap="round" stroke-linejoin="round"/>
<path d="M10.2231 7.13965L7.18311 10.1796H17.4831" stroke="black" stroke-opacity="0.2" stroke-width="1.5" stroke-miterlimit="10" stroke-linecap="round" stroke-linejoin="round"/>
</svg>
