<svg width="32" height="32" viewBox="0 0 32 32" fill="none" xmlns="http://www.w3.org/2000/svg">
<circle cx="16" cy="16" r="16" fill="#0F75BC"/>
<path d="M25.9415 15.5086L23.7503 9.60902C23.6637 9.37569 23.4908 9.18991 23.2636 9.08573C23.0362 8.98175 22.7828 8.97198 22.5495 9.05847L21.0828 9.60312C20.6 9.78249 20.353 10.3213 20.5323 10.8041L20.5561 10.8682C20.2091 10.9999 19.8219 10.856 19.2299 10.6081C18.346 10.238 17.1473 9.74116 15.6254 10.693C14.3903 9.92421 13.4211 10.1139 12.5628 10.2848C12.1268 10.3714 11.7115 10.453 11.2826 10.4086C11.2706 10.2959 11.2397 10.1848 11.1864 10.0807C11.0723 9.85808 10.8791 9.69339 10.6424 9.61702L9.15354 9.13675C8.9167 9.06038 8.66369 9.08116 8.44119 9.19491C8.21869 9.30894 8.054 9.50214 7.97772 9.73886L6.04517 15.7282C5.88709 16.2184 6.15724 16.7459 6.64748 16.9039L8.13631 17.3844C8.23025 17.4147 8.3267 17.4298 8.42276 17.4298C8.56897 17.4298 8.71432 17.3949 8.84858 17.3262C8.93151 17.2837 9.00319 17.2271 9.06846 17.1645C9.07764 17.2098 9.08994 17.2546 9.10104 17.2996L8.7283 17.9964C8.56846 18.2954 8.53748 18.658 8.6435 18.9911C8.7467 19.3154 8.96436 19.5743 9.24983 19.717C9.49862 19.8501 9.77268 19.8917 10.0329 19.8533C9.95858 20.0998 9.95998 20.3702 10.0406 20.6236C10.1438 20.9479 10.3614 21.2069 10.6469 21.3495C10.9455 21.5092 11.2892 21.5425 11.6149 21.444C11.745 21.4045 11.8659 21.3459 11.9743 21.2706C12.0788 21.5899 12.2948 21.8447 12.577 21.9857C12.8755 22.1454 13.2192 22.1787 13.5449 22.0802C13.6173 22.0582 13.6868 22.0304 13.7528 21.9971C13.8507 22.3902 14.1303 22.7404 14.4787 22.9268C14.6452 23.0158 14.8412 23.0731 15.0447 23.0731C15.4144 23.0731 15.8087 22.8836 16.094 22.3504L16.1496 22.2464C16.1713 22.2577 16.1928 22.2691 16.2126 22.2794L16.3614 22.357C16.5436 22.4508 16.7217 22.4921 16.8891 22.4921C17.3068 22.4921 17.6576 22.2347 17.837 21.8928C17.9605 21.6576 18.004 21.3779 17.9441 21.1064C18.0948 21.1142 18.2472 21.0963 18.3961 21.0512C18.7306 20.9498 19.0051 20.7252 19.169 20.4188C19.3014 20.1712 19.3494 19.8933 19.3094 19.6193C19.5892 19.7354 19.8986 19.7505 20.1937 19.6611C20.5311 19.5589 20.808 19.3323 20.9733 19.0232C21.1084 18.7704 21.1564 18.4864 21.1134 18.2068C21.5694 18.3886 22.0094 18.3054 22.3148 17.9707C22.6245 17.6316 22.7287 17.1119 22.6129 16.6482C22.6368 16.6396 22.6611 16.6309 22.688 16.6212L22.6923 16.6197L22.7236 16.7038C22.8633 17.0797 23.2209 17.3125 23.6002 17.3125C23.7081 17.3125 23.8176 17.2938 23.9244 17.2541L25.391 16.7095C25.8739 16.5301 26.1208 15.9914 25.9415 15.5086ZM8.79776 16.6163C8.76565 16.7157 8.69623 16.797 8.60217 16.8451C8.50795 16.8932 8.4015 16.9021 8.30225 16.8701L6.81334 16.3895C6.60678 16.3229 6.49291 16.1007 6.55951 15.8941L8.49213 9.9048C8.52416 9.80546 8.59358 9.72417 8.6876 9.67605C8.74444 9.64695 8.80592 9.63214 8.8676 9.63214C8.90791 9.63214 8.94819 9.63839 8.98744 9.65105C8.98752 9.65105 8.98752 9.65105 8.98752 9.65112L10.4764 10.1315C10.5758 10.1635 10.6571 10.2329 10.7052 10.3269C10.7533 10.421 10.7622 10.5275 10.7302 10.6269L9.18733 15.4088C9.18057 15.4219 9.17405 15.4352 9.1694 15.4497C9.15584 15.4915 9.14537 15.5338 9.13346 15.5759L8.79776 16.6163ZM9.49815 19.2369C9.33768 19.1568 9.21705 19.0113 9.15858 18.8272C9.09655 18.6323 9.11346 18.4224 9.20494 18.2514L9.62604 17.4641C9.62612 17.464 9.62623 17.4639 9.62627 17.4638L9.82741 17.0877C10.0148 16.7375 10.449 16.6022 10.8013 16.78C11.0324 16.9416 11.3791 17.2853 11.1161 17.777L10.9728 18.045L10.4931 18.9417C10.3028 19.2961 9.85975 19.4305 9.49815 19.2369ZM11.8908 20.5732C11.7993 20.7444 11.6456 20.87 11.458 20.9268C11.2705 20.9836 11.0729 20.9645 10.8952 20.8695C10.7348 20.7894 10.6141 20.6438 10.5556 20.4597C10.4936 20.265 10.5106 20.055 10.6021 19.884L10.9698 19.1968L11.4494 18.3C11.5409 18.1289 11.6946 18.0034 11.8821 17.9465C12.0696 17.8895 12.2671 17.9088 12.4383 18.0004C12.6095 18.0918 12.735 18.2455 12.7918 18.4331C12.8487 18.6206 12.8295 18.8182 12.7379 18.9894L12.6032 19.2414C12.6031 19.2416 12.6029 19.2419 12.6028 19.2422L12.0555 20.2652C12.0555 20.2653 12.0555 20.2653 12.0555 20.2654L11.8908 20.5732ZM13.3881 21.5629C13.2005 21.6198 13.0031 21.6006 12.8253 21.5057C12.6649 21.4255 12.5443 21.28 12.4858 21.096C12.4239 20.9014 12.4407 20.6919 12.5318 20.521L12.5322 20.5202L13.0794 19.4971C13.0795 19.497 13.0795 19.4969 13.0796 19.4968L13.0799 19.4963C13.1715 19.3255 13.325 19.2003 13.5122 19.1436C13.6996 19.0864 13.8972 19.1057 14.0683 19.1974C14.4236 19.3874 14.558 19.8311 14.3681 20.1863L14.0945 20.6979L13.8519 21.1514C13.8519 21.1515 13.8517 21.1517 13.8517 21.1519L13.8209 21.2094C13.7294 21.3805 13.5756 21.5061 13.3881 21.5629ZM14.7337 22.4502C14.3794 22.2607 14.1258 21.7853 14.3286 21.4062L14.5712 20.9528L14.5714 20.9522C14.666 20.7759 14.8341 20.6342 15.0329 20.5636C15.2313 20.4931 15.4305 20.5025 15.5939 20.5899C15.95 20.7803 16.0075 20.9469 16.0196 21.0557C16.0381 21.2201 15.9685 21.4387 15.7942 21.7645C15.7941 21.7648 15.794 21.765 15.7939 21.7653L15.6173 22.0955C15.3182 22.6552 14.9354 22.5579 14.7337 22.4502ZM17.3584 21.6418C17.231 21.885 16.9498 22.052 16.6088 21.8766L16.464 21.801C16.44 21.7883 16.4177 21.7766 16.3969 21.7658C16.5064 21.5224 16.5862 21.2578 16.5568 20.9956C16.5237 20.6998 16.3596 20.4532 16.0618 20.2452L17.1262 20.8168C17.4819 21.0665 17.4807 21.4088 17.3584 21.6418ZM21.9156 17.6064C21.7416 17.7972 21.5027 17.8134 21.2055 17.6542L20.4346 17.242C20.4341 17.2417 20.4336 17.2414 20.433 17.2412C20.4251 17.237 20.4169 17.2345 20.4088 17.2312L17.9231 15.8819C17.7922 15.8105 17.628 15.8593 17.5567 15.9905C17.4855 16.1217 17.5341 16.2857 17.6653 16.357L20.2036 17.7348C20.3716 17.8333 20.4964 17.9882 20.5538 18.1775C20.6141 18.3766 20.5938 18.5864 20.4965 18.7683C20.3993 18.9502 20.236 19.0836 20.0368 19.1439C19.8373 19.2042 19.6277 19.1839 19.446 19.0867L18.6796 18.6768C18.6662 18.6659 18.6519 18.656 18.6362 18.6476L16.7866 17.6587C16.6548 17.5881 16.4911 17.6381 16.4209 17.7696C16.3505 17.9012 16.4001 18.065 16.5318 18.1353L18.3349 19.0994C18.3483 19.1104 18.3628 19.1203 18.3786 19.1288C18.5578 19.2246 18.6893 19.3854 18.7487 19.5818C18.8082 19.7781 18.7881 19.9848 18.6923 20.1639C18.5965 20.3431 18.4356 20.4745 18.2393 20.534C18.0431 20.5934 17.8363 20.5734 17.6571 20.4776L17.2659 20.2684C17.2462 20.2579 17.2257 20.2509 17.2051 20.2456L15.6259 19.3977C15.4944 19.3266 15.3305 19.3763 15.26 19.5079C15.1894 19.6394 15.2387 19.8033 15.3703 19.8738L15.7021 20.052C15.4768 19.969 15.23 19.9533 14.9831 20.0148C15.0528 19.5031 14.8045 18.9781 14.3232 18.7206C14.0275 18.5625 13.6873 18.5281 13.3643 18.6235C13.362 18.5074 13.3437 18.3907 13.3091 18.2763C13.2103 17.9505 12.9915 17.6832 12.6931 17.5236C12.3931 17.3633 12.0571 17.3357 11.7529 17.4205C11.7477 16.9614 11.4563 16.5795 11.1092 16.3359C11.0973 16.3267 11.0847 16.3185 11.0712 16.3113C10.553 16.0343 9.92678 16.154 9.54295 16.564C9.53674 16.2829 9.57518 16.0007 9.65326 15.7245L11.1958 10.9435C11.7173 11.0039 12.1997 10.9082 12.668 10.8148C13.4466 10.66 14.1861 10.5128 15.1416 11.0336C14.9334 11.1994 14.7241 11.3885 14.5159 11.5988C14.3511 11.7654 14.1817 11.9318 14.0164 12.0941C13.4137 12.686 12.8932 13.1972 12.7444 13.56C12.7084 13.6477 12.721 13.7478 12.7776 13.8239C13.8533 15.2705 15.1569 14.7796 16.204 14.3853C16.989 14.0896 17.6669 13.8342 18.207 14.2616C18.2172 14.2696 18.228 14.277 18.2392 14.2835C18.4971 14.4329 18.8524 14.6084 19.2638 14.8115C20.2584 15.3028 21.6205 15.9755 21.9725 16.5105C22.209 16.8698 22.134 17.3672 21.9156 17.6064ZM22.3821 16.1569C21.9102 15.517 20.5802 14.8588 19.5033 14.327C19.1093 14.1324 18.7679 13.9639 18.5263 13.8251C17.7505 13.2255 16.8676 13.5579 16.0136 13.8796C15.0013 14.2606 14.1211 14.5919 13.3171 13.6353C13.506 13.3531 13.9569 12.9102 14.3951 12.4799C14.5623 12.3157 14.7335 12.1475 14.9001 11.9791C15.1889 11.6875 15.4778 11.4421 15.7596 11.2483C17.121 10.312 18.1303 10.7339 19.0211 11.1066C19.4376 11.281 19.8627 11.459 20.2832 11.459C20.4377 11.459 20.5913 11.4308 20.7439 11.3738L22.5041 16.113C22.463 16.1278 22.4215 16.1427 22.3821 16.1569ZM25.2029 16.2028L23.7363 16.7474C23.5322 16.8227 23.3057 16.7189 23.2302 16.5155L21.0391 10.6158C21.0027 10.518 21.0069 10.4112 21.0509 10.3151C21.095 10.2191 21.1731 10.1462 21.271 10.1098L22.7375 9.56515C22.7816 9.54878 22.8275 9.54062 22.8733 9.54062C22.9294 9.54062 22.9855 9.55284 23.0383 9.57702C23.1343 9.62101 23.2072 9.69921 23.2436 9.79714L25.4348 15.6967C25.5104 15.9002 25.4063 16.1272 25.2029 16.2028Z" fill="#FAFAFA"/>
<path d="M25.9415 15.5086L23.7503 9.60902C23.6637 9.37569 23.4908 9.18991 23.2636 9.08573C23.0362 8.98175 22.7828 8.97198 22.5495 9.05847L21.0828 9.60312C20.6 9.78249 20.353 10.3213 20.5323 10.8041L20.5561 10.8682C20.2091 10.9999 19.8219 10.856 19.2299 10.6081C18.346 10.238 17.1473 9.74116 15.6254 10.693C14.3903 9.92421 13.4211 10.1139 12.5628 10.2848C12.1268 10.3714 11.7115 10.453 11.2826 10.4086C11.2706 10.2959 11.2397 10.1848 11.1864 10.0807C11.0723 9.85808 10.8791 9.69339 10.6424 9.61702L9.15354 9.13675C8.9167 9.06038 8.66369 9.08116 8.44119 9.19491C8.21869 9.30894 8.054 9.50214 7.97772 9.73886L6.04517 15.7282C5.88709 16.2184 6.15724 16.7459 6.64748 16.9039L8.13631 17.3844C8.23025 17.4147 8.3267 17.4298 8.42276 17.4298C8.56897 17.4298 8.71432 17.3949 8.84858 17.3262C8.93151 17.2837 9.00319 17.2271 9.06846 17.1645C9.07764 17.2098 9.08994 17.2546 9.10104 17.2996L8.7283 17.9964C8.56846 18.2954 8.53748 18.658 8.6435 18.9911C8.7467 19.3154 8.96436 19.5743 9.24983 19.717C9.49862 19.8501 9.77268 19.8917 10.0329 19.8533C9.95858 20.0998 9.95998 20.3702 10.0406 20.6236C10.1438 20.9479 10.3614 21.2069 10.6469 21.3495C10.9455 21.5092 11.2892 21.5425 11.6149 21.444C11.745 21.4045 11.8659 21.3459 11.9743 21.2706C12.0788 21.5899 12.2948 21.8447 12.577 21.9857C12.8755 22.1454 13.2192 22.1787 13.5449 22.0802C13.6173 22.0582 13.6868 22.0304 13.7528 21.9971C13.8507 22.3902 14.1303 22.7404 14.4787 22.9268C14.6452 23.0158 14.8412 23.0731 15.0447 23.0731C15.4144 23.0731 15.8087 22.8836 16.094 22.3504L16.1496 22.2464C16.1713 22.2577 16.1928 22.2691 16.2126 22.2794L16.3614 22.357C16.5436 22.4508 16.7217 22.4921 16.8891 22.4921C17.3068 22.4921 17.6576 22.2347 17.837 21.8928C17.9605 21.6576 18.004 21.3779 17.9441 21.1064C18.0948 21.1142 18.2472 21.0963 18.3961 21.0512C18.7306 20.9498 19.0051 20.7252 19.169 20.4188C19.3014 20.1712 19.3494 19.8933 19.3094 19.6193C19.5892 19.7354 19.8986 19.7505 20.1937 19.6611C20.5311 19.5589 20.808 19.3323 20.9733 19.0232C21.1084 18.7704 21.1564 18.4864 21.1134 18.2068C21.5694 18.3886 22.0094 18.3054 22.3148 17.9707C22.6245 17.6316 22.7287 17.1119 22.6129 16.6482C22.6368 16.6396 22.6611 16.6309 22.688 16.6212L22.6923 16.6197L22.7236 16.7038C22.8633 17.0797 23.2209 17.3125 23.6002 17.3125C23.7081 17.3125 23.8176 17.2938 23.9244 17.2541L25.391 16.7095C25.8739 16.5301 26.1208 15.9914 25.9415 15.5086ZM8.79776 16.6163C8.76565 16.7157 8.69623 16.797 8.60217 16.8451C8.50795 16.8932 8.4015 16.9021 8.30225 16.8701L6.81334 16.3895C6.60678 16.3229 6.49291 16.1007 6.55951 15.8941L8.49213 9.9048C8.52416 9.80546 8.59358 9.72417 8.6876 9.67605C8.74444 9.64695 8.80592 9.63214 8.8676 9.63214C8.90791 9.63214 8.94819 9.63839 8.98744 9.65105C8.98752 9.65105 8.98752 9.65105 8.98752 9.65112L10.4764 10.1315C10.5758 10.1635 10.6571 10.2329 10.7052 10.3269C10.7533 10.421 10.7622 10.5275 10.7302 10.6269L9.18733 15.4088C9.18057 15.4219 9.17405 15.4352 9.1694 15.4497C9.15584 15.4915 9.14537 15.5338 9.13346 15.5759L8.79776 16.6163ZM9.49815 19.2369C9.33768 19.1568 9.21705 19.0113 9.15858 18.8272C9.09655 18.6323 9.11346 18.4224 9.20494 18.2514L9.62604 17.4641C9.62612 17.464 9.62623 17.4639 9.62627 17.4638L9.82741 17.0877C10.0148 16.7375 10.449 16.6022 10.8013 16.78C11.0324 16.9416 11.3791 17.2853 11.1161 17.777L10.9728 18.045L10.4931 18.9417C10.3028 19.2961 9.85975 19.4305 9.49815 19.2369ZM11.8908 20.5732C11.7993 20.7444 11.6456 20.87 11.458 20.9268C11.2705 20.9836 11.0729 20.9645 10.8952 20.8695C10.7348 20.7894 10.6141 20.6438 10.5556 20.4597C10.4936 20.265 10.5106 20.055 10.6021 19.884L10.9698 19.1968L11.4494 18.3C11.5409 18.1289 11.6946 18.0034 11.8821 17.9465C12.0696 17.8895 12.2671 17.9088 12.4383 18.0004C12.6095 18.0918 12.735 18.2455 12.7918 18.4331C12.8487 18.6206 12.8295 18.8182 12.7379 18.9894L12.6032 19.2414C12.6031 19.2416 12.6029 19.2419 12.6028 19.2422L12.0555 20.2652C12.0555 20.2653 12.0555 20.2653 12.0555 20.2654L11.8908 20.5732ZM13.3881 21.5629C13.2005 21.6198 13.0031 21.6006 12.8253 21.5057C12.6649 21.4255 12.5443 21.28 12.4858 21.096C12.4239 20.9014 12.4407 20.6919 12.5318 20.521L12.5322 20.5202L13.0794 19.4971C13.0795 19.497 13.0795 19.4969 13.0796 19.4968L13.0799 19.4963C13.1715 19.3255 13.325 19.2003 13.5122 19.1436C13.6996 19.0864 13.8972 19.1057 14.0683 19.1974C14.4236 19.3874 14.558 19.8311 14.3681 20.1863L14.0945 20.6979L13.8519 21.1514C13.8519 21.1515 13.8517 21.1517 13.8517 21.1519L13.8209 21.2094C13.7294 21.3805 13.5756 21.5061 13.3881 21.5629ZM14.7337 22.4502C14.3794 22.2607 14.1258 21.7853 14.3286 21.4062L14.5712 20.9528L14.5714 20.9522C14.666 20.7759 14.8341 20.6342 15.0329 20.5636C15.2313 20.4931 15.4305 20.5025 15.5939 20.5899C15.95 20.7803 16.0075 20.9469 16.0196 21.0557C16.0381 21.2201 15.9685 21.4387 15.7942 21.7645C15.7941 21.7648 15.794 21.765 15.7939 21.7653L15.6173 22.0955C15.3182 22.6552 14.9354 22.5579 14.7337 22.4502ZM17.3584 21.6418C17.231 21.885 16.9498 22.052 16.6088 21.8766L16.464 21.801C16.44 21.7883 16.4177 21.7766 16.3969 21.7658C16.5064 21.5224 16.5862 21.2578 16.5568 20.9956C16.5237 20.6998 16.3596 20.4532 16.0618 20.2452L17.1262 20.8168C17.4819 21.0665 17.4807 21.4088 17.3584 21.6418ZM21.9156 17.6064C21.7416 17.7972 21.5027 17.8134 21.2055 17.6542L20.4346 17.242C20.4341 17.2417 20.4336 17.2414 20.433 17.2412C20.4251 17.237 20.4169 17.2345 20.4088 17.2312L17.9231 15.8819C17.7922 15.8105 17.628 15.8593 17.5567 15.9905C17.4855 16.1217 17.5341 16.2857 17.6653 16.357L20.2036 17.7348C20.3716 17.8333 20.4964 17.9882 20.5538 18.1775C20.6141 18.3766 20.5938 18.5864 20.4965 18.7683C20.3993 18.9502 20.236 19.0836 20.0368 19.1439C19.8373 19.2042 19.6277 19.1839 19.446 19.0867L18.6796 18.6768C18.6662 18.6659 18.6519 18.656 18.6362 18.6476L16.7866 17.6587C16.6548 17.5881 16.4911 17.6381 16.4209 17.7696C16.3505 17.9012 16.4001 18.065 16.5318 18.1353L18.3349 19.0994C18.3483 19.1104 18.3628 19.1203 18.3786 19.1288C18.5578 19.2246 18.6893 19.3854 18.7487 19.5818C18.8082 19.7781 18.7881 19.9848 18.6923 20.1639C18.5965 20.3431 18.4356 20.4745 18.2393 20.534C18.0431 20.5934 17.8363 20.5734 17.6571 20.4776L17.2659 20.2684C17.2462 20.2579 17.2257 20.2509 17.2051 20.2456L15.6259 19.3977C15.4944 19.3266 15.3305 19.3763 15.26 19.5079C15.1894 19.6394 15.2387 19.8033 15.3703 19.8738L15.7021 20.052C15.4768 19.969 15.23 19.9533 14.9831 20.0148C15.0528 19.5031 14.8045 18.9781 14.3232 18.7206C14.0275 18.5625 13.6873 18.5281 13.3643 18.6235C13.362 18.5074 13.3437 18.3907 13.3091 18.2763C13.2103 17.9505 12.9915 17.6832 12.6931 17.5236C12.3931 17.3633 12.0571 17.3357 11.7529 17.4205C11.7477 16.9614 11.4563 16.5795 11.1092 16.3359C11.0973 16.3267 11.0847 16.3185 11.0712 16.3113C10.553 16.0343 9.92678 16.154 9.54295 16.564C9.53674 16.2829 9.57518 16.0007 9.65326 15.7245L11.1958 10.9435C11.7173 11.0039 12.1997 10.9082 12.668 10.8148C13.4466 10.66 14.1861 10.5128 15.1416 11.0336C14.9334 11.1994 14.7241 11.3885 14.5159 11.5988C14.3511 11.7654 14.1817 11.9318 14.0164 12.0941C13.4137 12.686 12.8932 13.1972 12.7444 13.56C12.7084 13.6477 12.721 13.7478 12.7776 13.8239C13.8533 15.2705 15.1569 14.7796 16.204 14.3853C16.989 14.0896 17.6669 13.8342 18.207 14.2616C18.2172 14.2696 18.228 14.277 18.2392 14.2835C18.4971 14.4329 18.8524 14.6084 19.2638 14.8115C20.2584 15.3028 21.6205 15.9755 21.9725 16.5105C22.209 16.8698 22.134 17.3672 21.9156 17.6064ZM22.3821 16.1569C21.9102 15.517 20.5802 14.8588 19.5033 14.327C19.1093 14.1324 18.7679 13.9639 18.5263 13.8251C17.7505 13.2255 16.8676 13.5579 16.0136 13.8796C15.0013 14.2606 14.1211 14.5919 13.3171 13.6353C13.506 13.3531 13.9569 12.9102 14.3951 12.4799C14.5623 12.3157 14.7335 12.1475 14.9001 11.9791C15.1889 11.6875 15.4778 11.4421 15.7596 11.2483C17.121 10.312 18.1303 10.7339 19.0211 11.1066C19.4376 11.281 19.8627 11.459 20.2832 11.459C20.4377 11.459 20.5913 11.4308 20.7439 11.3738L22.5041 16.113C22.463 16.1278 22.4215 16.1427 22.3821 16.1569ZM25.2029 16.2028L23.7363 16.7474C23.5322 16.8227 23.3057 16.7189 23.2302 16.5155L21.0391 10.6158C21.0027 10.518 21.0069 10.4112 21.0509 10.3151C21.095 10.2191 21.1731 10.1462 21.271 10.1098L22.7375 9.56515C22.7816 9.54878 22.8275 9.54062 22.8733 9.54062C22.9294 9.54062 22.9855 9.55284 23.0383 9.57702C23.1343 9.62101 23.2072 9.69921 23.2436 9.79714L25.4348 15.6967C25.5104 15.9002 25.4063 16.1272 25.2029 16.2028Z" fill="white" fill-opacity="0.85"/>
<path d="M25.9415 15.5086L23.7503 9.60902C23.6637 9.37569 23.4908 9.18991 23.2636 9.08573C23.0362 8.98175 22.7828 8.97198 22.5495 9.05847L21.0828 9.60312C20.6 9.78249 20.353 10.3213 20.5323 10.8041L20.5561 10.8682C20.2091 10.9999 19.8219 10.856 19.2299 10.6081C18.346 10.238 17.1473 9.74116 15.6254 10.693C14.3903 9.92421 13.4211 10.1139 12.5628 10.2848C12.1268 10.3714 11.7115 10.453 11.2826 10.4086C11.2706 10.2959 11.2397 10.1848 11.1864 10.0807C11.0723 9.85808 10.8791 9.69339 10.6424 9.61702L9.15354 9.13675C8.9167 9.06038 8.66369 9.08116 8.44119 9.19491C8.21869 9.30894 8.054 9.50214 7.97772 9.73886L6.04517 15.7282C5.88709 16.2184 6.15724 16.7459 6.64748 16.9039L8.13631 17.3844C8.23025 17.4147 8.3267 17.4298 8.42276 17.4298C8.56897 17.4298 8.71432 17.3949 8.84858 17.3262C8.93151 17.2837 9.00319 17.2271 9.06846 17.1645C9.07764 17.2098 9.08994 17.2546 9.10104 17.2996L8.7283 17.9964C8.56846 18.2954 8.53748 18.658 8.6435 18.9911C8.7467 19.3154 8.96436 19.5743 9.24983 19.717C9.49862 19.8501 9.77268 19.8917 10.0329 19.8533C9.95858 20.0998 9.95998 20.3702 10.0406 20.6236C10.1438 20.9479 10.3614 21.2069 10.6469 21.3495C10.9455 21.5092 11.2892 21.5425 11.6149 21.444C11.745 21.4045 11.8659 21.3459 11.9743 21.2706C12.0788 21.5899 12.2948 21.8447 12.577 21.9857C12.8755 22.1454 13.2192 22.1787 13.5449 22.0802C13.6173 22.0582 13.6868 22.0304 13.7528 21.9971C13.8507 22.3902 14.1303 22.7404 14.4787 22.9268C14.6452 23.0158 14.8412 23.0731 15.0447 23.0731C15.4144 23.0731 15.8087 22.8836 16.094 22.3504L16.1496 22.2464C16.1713 22.2577 16.1928 22.2691 16.2126 22.2794L16.3614 22.357C16.5436 22.4508 16.7217 22.4921 16.8891 22.4921C17.3068 22.4921 17.6576 22.2347 17.837 21.8928C17.9605 21.6576 18.004 21.3779 17.9441 21.1064C18.0948 21.1142 18.2472 21.0963 18.3961 21.0512C18.7306 20.9498 19.0051 20.7252 19.169 20.4188C19.3014 20.1712 19.3494 19.8933 19.3094 19.6193C19.5892 19.7354 19.8986 19.7505 20.1937 19.6611C20.5311 19.5589 20.808 19.3323 20.9733 19.0232C21.1084 18.7704 21.1564 18.4864 21.1134 18.2068C21.5694 18.3886 22.0094 18.3054 22.3148 17.9707C22.6245 17.6316 22.7287 17.1119 22.6129 16.6482C22.6368 16.6396 22.6611 16.6309 22.688 16.6212L22.6923 16.6197L22.7236 16.7038C22.8633 17.0797 23.2209 17.3125 23.6002 17.3125C23.7081 17.3125 23.8176 17.2938 23.9244 17.2541L25.391 16.7095C25.8739 16.5301 26.1208 15.9914 25.9415 15.5086ZM8.79776 16.6163C8.76565 16.7157 8.69623 16.797 8.60217 16.8451C8.50795 16.8932 8.4015 16.9021 8.30225 16.8701L6.81334 16.3895C6.60678 16.3229 6.49291 16.1007 6.55951 15.8941L8.49213 9.9048C8.52416 9.80546 8.59358 9.72417 8.6876 9.67605C8.74444 9.64695 8.80592 9.63214 8.8676 9.63214C8.90791 9.63214 8.94819 9.63839 8.98744 9.65105C8.98752 9.65105 8.98752 9.65105 8.98752 9.65112L10.4764 10.1315C10.5758 10.1635 10.6571 10.2329 10.7052 10.3269C10.7533 10.421 10.7622 10.5275 10.7302 10.6269L9.18733 15.4088C9.18057 15.4219 9.17405 15.4352 9.1694 15.4497C9.15584 15.4915 9.14537 15.5338 9.13346 15.5759L8.79776 16.6163ZM9.49815 19.2369C9.33768 19.1568 9.21705 19.0113 9.15858 18.8272C9.09655 18.6323 9.11346 18.4224 9.20494 18.2514L9.62604 17.4641C9.62612 17.464 9.62623 17.4639 9.62627 17.4638L9.82741 17.0877C10.0148 16.7375 10.449 16.6022 10.8013 16.78C11.0324 16.9416 11.3791 17.2853 11.1161 17.777L10.9728 18.045L10.4931 18.9417C10.3028 19.2961 9.85975 19.4305 9.49815 19.2369ZM11.8908 20.5732C11.7993 20.7444 11.6456 20.87 11.458 20.9268C11.2705 20.9836 11.0729 20.9645 10.8952 20.8695C10.7348 20.7894 10.6141 20.6438 10.5556 20.4597C10.4936 20.265 10.5106 20.055 10.6021 19.884L10.9698 19.1968L11.4494 18.3C11.5409 18.1289 11.6946 18.0034 11.8821 17.9465C12.0696 17.8895 12.2671 17.9088 12.4383 18.0004C12.6095 18.0918 12.735 18.2455 12.7918 18.4331C12.8487 18.6206 12.8295 18.8182 12.7379 18.9894L12.6032 19.2414C12.6031 19.2416 12.6029 19.2419 12.6028 19.2422L12.0555 20.2652C12.0555 20.2653 12.0555 20.2653 12.0555 20.2654L11.8908 20.5732ZM13.3881 21.5629C13.2005 21.6198 13.0031 21.6006 12.8253 21.5057C12.6649 21.4255 12.5443 21.28 12.4858 21.096C12.4239 20.9014 12.4407 20.6919 12.5318 20.521L12.5322 20.5202L13.0794 19.4971C13.0795 19.497 13.0795 19.4969 13.0796 19.4968L13.0799 19.4963C13.1715 19.3255 13.325 19.2003 13.5122 19.1436C13.6996 19.0864 13.8972 19.1057 14.0683 19.1974C14.4236 19.3874 14.558 19.8311 14.3681 20.1863L14.0945 20.6979L13.8519 21.1514C13.8519 21.1515 13.8517 21.1517 13.8517 21.1519L13.8209 21.2094C13.7294 21.3805 13.5756 21.5061 13.3881 21.5629ZM14.7337 22.4502C14.3794 22.2607 14.1258 21.7853 14.3286 21.4062L14.5712 20.9528L14.5714 20.9522C14.666 20.7759 14.8341 20.6342 15.0329 20.5636C15.2313 20.4931 15.4305 20.5025 15.5939 20.5899C15.95 20.7803 16.0075 20.9469 16.0196 21.0557C16.0381 21.2201 15.9685 21.4387 15.7942 21.7645C15.7941 21.7648 15.794 21.765 15.7939 21.7653L15.6173 22.0955C15.3182 22.6552 14.9354 22.5579 14.7337 22.4502ZM17.3584 21.6418C17.231 21.885 16.9498 22.052 16.6088 21.8766L16.464 21.801C16.44 21.7883 16.4177 21.7766 16.3969 21.7658C16.5064 21.5224 16.5862 21.2578 16.5568 20.9956C16.5237 20.6998 16.3596 20.4532 16.0618 20.2452L17.1262 20.8168C17.4819 21.0665 17.4807 21.4088 17.3584 21.6418ZM21.9156 17.6064C21.7416 17.7972 21.5027 17.8134 21.2055 17.6542L20.4346 17.242C20.4341 17.2417 20.4336 17.2414 20.433 17.2412C20.4251 17.237 20.4169 17.2345 20.4088 17.2312L17.9231 15.8819C17.7922 15.8105 17.628 15.8593 17.5567 15.9905C17.4855 16.1217 17.5341 16.2857 17.6653 16.357L20.2036 17.7348C20.3716 17.8333 20.4964 17.9882 20.5538 18.1775C20.6141 18.3766 20.5938 18.5864 20.4965 18.7683C20.3993 18.9502 20.236 19.0836 20.0368 19.1439C19.8373 19.2042 19.6277 19.1839 19.446 19.0867L18.6796 18.6768C18.6662 18.6659 18.6519 18.656 18.6362 18.6476L16.7866 17.6587C16.6548 17.5881 16.4911 17.6381 16.4209 17.7696C16.3505 17.9012 16.4001 18.065 16.5318 18.1353L18.3349 19.0994C18.3483 19.1104 18.3628 19.1203 18.3786 19.1288C18.5578 19.2246 18.6893 19.3854 18.7487 19.5818C18.8082 19.7781 18.7881 19.9848 18.6923 20.1639C18.5965 20.3431 18.4356 20.4745 18.2393 20.534C18.0431 20.5934 17.8363 20.5734 17.6571 20.4776L17.2659 20.2684C17.2462 20.2579 17.2257 20.2509 17.2051 20.2456L15.6259 19.3977C15.4944 19.3266 15.3305 19.3763 15.26 19.5079C15.1894 19.6394 15.2387 19.8033 15.3703 19.8738L15.7021 20.052C15.4768 19.969 15.23 19.9533 14.9831 20.0148C15.0528 19.5031 14.8045 18.9781 14.3232 18.7206C14.0275 18.5625 13.6873 18.5281 13.3643 18.6235C13.362 18.5074 13.3437 18.3907 13.3091 18.2763C13.2103 17.9505 12.9915 17.6832 12.6931 17.5236C12.3931 17.3633 12.0571 17.3357 11.7529 17.4205C11.7477 16.9614 11.4563 16.5795 11.1092 16.3359C11.0973 16.3267 11.0847 16.3185 11.0712 16.3113C10.553 16.0343 9.92678 16.154 9.54295 16.564C9.53674 16.2829 9.57518 16.0007 9.65326 15.7245L11.1958 10.9435C11.7173 11.0039 12.1997 10.9082 12.668 10.8148C13.4466 10.66 14.1861 10.5128 15.1416 11.0336C14.9334 11.1994 14.7241 11.3885 14.5159 11.5988C14.3511 11.7654 14.1817 11.9318 14.0164 12.0941C13.4137 12.686 12.8932 13.1972 12.7444 13.56C12.7084 13.6477 12.721 13.7478 12.7776 13.8239C13.8533 15.2705 15.1569 14.7796 16.204 14.3853C16.989 14.0896 17.6669 13.8342 18.207 14.2616C18.2172 14.2696 18.228 14.277 18.2392 14.2835C18.4971 14.4329 18.8524 14.6084 19.2638 14.8115C20.2584 15.3028 21.6205 15.9755 21.9725 16.5105C22.209 16.8698 22.134 17.3672 21.9156 17.6064ZM22.3821 16.1569C21.9102 15.517 20.5802 14.8588 19.5033 14.327C19.1093 14.1324 18.7679 13.9639 18.5263 13.8251C17.7505 13.2255 16.8676 13.5579 16.0136 13.8796C15.0013 14.2606 14.1211 14.5919 13.3171 13.6353C13.506 13.3531 13.9569 12.9102 14.3951 12.4799C14.5623 12.3157 14.7335 12.1475 14.9001 11.9791C15.1889 11.6875 15.4778 11.4421 15.7596 11.2483C17.121 10.312 18.1303 10.7339 19.0211 11.1066C19.4376 11.281 19.8627 11.459 20.2832 11.459C20.4377 11.459 20.5913 11.4308 20.7439 11.3738L22.5041 16.113C22.463 16.1278 22.4215 16.1427 22.3821 16.1569ZM25.2029 16.2028L23.7363 16.7474C23.5322 16.8227 23.3057 16.7189 23.2302 16.5155L21.0391 10.6158C21.0027 10.518 21.0069 10.4112 21.0509 10.3151C21.095 10.2191 21.1731 10.1462 21.271 10.1098L22.7375 9.56515C22.7816 9.54878 22.8275 9.54062 22.8733 9.54062C22.9294 9.54062 22.9855 9.55284 23.0383 9.57702C23.1343 9.62101 23.2072 9.69921 23.2436 9.79714L25.4348 15.6967C25.5104 15.9002 25.4063 16.1272 25.2029 16.2028Z" stroke="#FAFAFA"/>
<path d="M25.9415 15.5086L23.7503 9.60902C23.6637 9.37569 23.4908 9.18991 23.2636 9.08573C23.0362 8.98175 22.7828 8.97198 22.5495 9.05847L21.0828 9.60312C20.6 9.78249 20.353 10.3213 20.5323 10.8041L20.5561 10.8682C20.2091 10.9999 19.8219 10.856 19.2299 10.6081C18.346 10.238 17.1473 9.74116 15.6254 10.693C14.3903 9.92421 13.4211 10.1139 12.5628 10.2848C12.1268 10.3714 11.7115 10.453 11.2826 10.4086C11.2706 10.2959 11.2397 10.1848 11.1864 10.0807C11.0723 9.85808 10.8791 9.69339 10.6424 9.61702L9.15354 9.13675C8.9167 9.06038 8.66369 9.08116 8.44119 9.19491C8.21869 9.30894 8.054 9.50214 7.97772 9.73886L6.04517 15.7282C5.88709 16.2184 6.15724 16.7459 6.64748 16.9039L8.13631 17.3844C8.23025 17.4147 8.3267 17.4298 8.42276 17.4298C8.56897 17.4298 8.71432 17.3949 8.84858 17.3262C8.93151 17.2837 9.00319 17.2271 9.06846 17.1645C9.07764 17.2098 9.08994 17.2546 9.10104 17.2996L8.7283 17.9964C8.56846 18.2954 8.53748 18.658 8.6435 18.9911C8.7467 19.3154 8.96436 19.5743 9.24983 19.717C9.49862 19.8501 9.77268 19.8917 10.0329 19.8533C9.95858 20.0998 9.95998 20.3702 10.0406 20.6236C10.1438 20.9479 10.3614 21.2069 10.6469 21.3495C10.9455 21.5092 11.2892 21.5425 11.6149 21.444C11.745 21.4045 11.8659 21.3459 11.9743 21.2706C12.0788 21.5899 12.2948 21.8447 12.577 21.9857C12.8755 22.1454 13.2192 22.1787 13.5449 22.0802C13.6173 22.0582 13.6868 22.0304 13.7528 21.9971C13.8507 22.3902 14.1303 22.7404 14.4787 22.9268C14.6452 23.0158 14.8412 23.0731 15.0447 23.0731C15.4144 23.0731 15.8087 22.8836 16.094 22.3504L16.1496 22.2464C16.1713 22.2577 16.1928 22.2691 16.2126 22.2794L16.3614 22.357C16.5436 22.4508 16.7217 22.4921 16.8891 22.4921C17.3068 22.4921 17.6576 22.2347 17.837 21.8928C17.9605 21.6576 18.004 21.3779 17.9441 21.1064C18.0948 21.1142 18.2472 21.0963 18.3961 21.0512C18.7306 20.9498 19.0051 20.7252 19.169 20.4188C19.3014 20.1712 19.3494 19.8933 19.3094 19.6193C19.5892 19.7354 19.8986 19.7505 20.1937 19.6611C20.5311 19.5589 20.808 19.3323 20.9733 19.0232C21.1084 18.7704 21.1564 18.4864 21.1134 18.2068C21.5694 18.3886 22.0094 18.3054 22.3148 17.9707C22.6245 17.6316 22.7287 17.1119 22.6129 16.6482C22.6368 16.6396 22.6611 16.6309 22.688 16.6212L22.6923 16.6197L22.7236 16.7038C22.8633 17.0797 23.2209 17.3125 23.6002 17.3125C23.7081 17.3125 23.8176 17.2938 23.9244 17.2541L25.391 16.7095C25.8739 16.5301 26.1208 15.9914 25.9415 15.5086ZM8.79776 16.6163C8.76565 16.7157 8.69623 16.797 8.60217 16.8451C8.50795 16.8932 8.4015 16.9021 8.30225 16.8701L6.81334 16.3895C6.60678 16.3229 6.49291 16.1007 6.55951 15.8941L8.49213 9.9048C8.52416 9.80546 8.59358 9.72417 8.6876 9.67605C8.74444 9.64695 8.80592 9.63214 8.8676 9.63214C8.90791 9.63214 8.94819 9.63839 8.98744 9.65105C8.98752 9.65105 8.98752 9.65105 8.98752 9.65112L10.4764 10.1315C10.5758 10.1635 10.6571 10.2329 10.7052 10.3269C10.7533 10.421 10.7622 10.5275 10.7302 10.6269L9.18733 15.4088C9.18057 15.4219 9.17405 15.4352 9.1694 15.4497C9.15584 15.4915 9.14537 15.5338 9.13346 15.5759L8.79776 16.6163ZM9.49815 19.2369C9.33768 19.1568 9.21705 19.0113 9.15858 18.8272C9.09655 18.6323 9.11346 18.4224 9.20494 18.2514L9.62604 17.4641C9.62612 17.464 9.62623 17.4639 9.62627 17.4638L9.82741 17.0877C10.0148 16.7375 10.449 16.6022 10.8013 16.78C11.0324 16.9416 11.3791 17.2853 11.1161 17.777L10.9728 18.045L10.4931 18.9417C10.3028 19.2961 9.85975 19.4305 9.49815 19.2369ZM11.8908 20.5732C11.7993 20.7444 11.6456 20.87 11.458 20.9268C11.2705 20.9836 11.0729 20.9645 10.8952 20.8695C10.7348 20.7894 10.6141 20.6438 10.5556 20.4597C10.4936 20.265 10.5106 20.055 10.6021 19.884L10.9698 19.1968L11.4494 18.3C11.5409 18.1289 11.6946 18.0034 11.8821 17.9465C12.0696 17.8895 12.2671 17.9088 12.4383 18.0004C12.6095 18.0918 12.735 18.2455 12.7918 18.4331C12.8487 18.6206 12.8295 18.8182 12.7379 18.9894L12.6032 19.2414C12.6031 19.2416 12.6029 19.2419 12.6028 19.2422L12.0555 20.2652C12.0555 20.2653 12.0555 20.2653 12.0555 20.2654L11.8908 20.5732ZM13.3881 21.5629C13.2005 21.6198 13.0031 21.6006 12.8253 21.5057C12.6649 21.4255 12.5443 21.28 12.4858 21.096C12.4239 20.9014 12.4407 20.6919 12.5318 20.521L12.5322 20.5202L13.0794 19.4971C13.0795 19.497 13.0795 19.4969 13.0796 19.4968L13.0799 19.4963C13.1715 19.3255 13.325 19.2003 13.5122 19.1436C13.6996 19.0864 13.8972 19.1057 14.0683 19.1974C14.4236 19.3874 14.558 19.8311 14.3681 20.1863L14.0945 20.6979L13.8519 21.1514C13.8519 21.1515 13.8517 21.1517 13.8517 21.1519L13.8209 21.2094C13.7294 21.3805 13.5756 21.5061 13.3881 21.5629ZM14.7337 22.4502C14.3794 22.2607 14.1258 21.7853 14.3286 21.4062L14.5712 20.9528L14.5714 20.9522C14.666 20.7759 14.8341 20.6342 15.0329 20.5636C15.2313 20.4931 15.4305 20.5025 15.5939 20.5899C15.95 20.7803 16.0075 20.9469 16.0196 21.0557C16.0381 21.2201 15.9685 21.4387 15.7942 21.7645C15.7941 21.7648 15.794 21.765 15.7939 21.7653L15.6173 22.0955C15.3182 22.6552 14.9354 22.5579 14.7337 22.4502ZM17.3584 21.6418C17.231 21.885 16.9498 22.052 16.6088 21.8766L16.464 21.801C16.44 21.7883 16.4177 21.7766 16.3969 21.7658C16.5064 21.5224 16.5862 21.2578 16.5568 20.9956C16.5237 20.6998 16.3596 20.4532 16.0618 20.2452L17.1262 20.8168C17.4819 21.0665 17.4807 21.4088 17.3584 21.6418ZM21.9156 17.6064C21.7416 17.7972 21.5027 17.8134 21.2055 17.6542L20.4346 17.242C20.4341 17.2417 20.4336 17.2414 20.433 17.2412C20.4251 17.237 20.4169 17.2345 20.4088 17.2312L17.9231 15.8819C17.7922 15.8105 17.628 15.8593 17.5567 15.9905C17.4855 16.1217 17.5341 16.2857 17.6653 16.357L20.2036 17.7348C20.3716 17.8333 20.4964 17.9882 20.5538 18.1775C20.6141 18.3766 20.5938 18.5864 20.4965 18.7683C20.3993 18.9502 20.236 19.0836 20.0368 19.1439C19.8373 19.2042 19.6277 19.1839 19.446 19.0867L18.6796 18.6768C18.6662 18.6659 18.6519 18.656 18.6362 18.6476L16.7866 17.6587C16.6548 17.5881 16.4911 17.6381 16.4209 17.7696C16.3505 17.9012 16.4001 18.065 16.5318 18.1353L18.3349 19.0994C18.3483 19.1104 18.3628 19.1203 18.3786 19.1288C18.5578 19.2246 18.6893 19.3854 18.7487 19.5818C18.8082 19.7781 18.7881 19.9848 18.6923 20.1639C18.5965 20.3431 18.4356 20.4745 18.2393 20.534C18.0431 20.5934 17.8363 20.5734 17.6571 20.4776L17.2659 20.2684C17.2462 20.2579 17.2257 20.2509 17.2051 20.2456L15.6259 19.3977C15.4944 19.3266 15.3305 19.3763 15.26 19.5079C15.1894 19.6394 15.2387 19.8033 15.3703 19.8738L15.7021 20.052C15.4768 19.969 15.23 19.9533 14.9831 20.0148C15.0528 19.5031 14.8045 18.9781 14.3232 18.7206C14.0275 18.5625 13.6873 18.5281 13.3643 18.6235C13.362 18.5074 13.3437 18.3907 13.3091 18.2763C13.2103 17.9505 12.9915 17.6832 12.6931 17.5236C12.3931 17.3633 12.0571 17.3357 11.7529 17.4205C11.7477 16.9614 11.4563 16.5795 11.1092 16.3359C11.0973 16.3267 11.0847 16.3185 11.0712 16.3113C10.553 16.0343 9.92678 16.154 9.54295 16.564C9.53674 16.2829 9.57518 16.0007 9.65326 15.7245L11.1958 10.9435C11.7173 11.0039 12.1997 10.9082 12.668 10.8148C13.4466 10.66 14.1861 10.5128 15.1416 11.0336C14.9334 11.1994 14.7241 11.3885 14.5159 11.5988C14.3511 11.7654 14.1817 11.9318 14.0164 12.0941C13.4137 12.686 12.8932 13.1972 12.7444 13.56C12.7084 13.6477 12.721 13.7478 12.7776 13.8239C13.8533 15.2705 15.1569 14.7796 16.204 14.3853C16.989 14.0896 17.6669 13.8342 18.207 14.2616C18.2172 14.2696 18.228 14.277 18.2392 14.2835C18.4971 14.4329 18.8524 14.6084 19.2638 14.8115C20.2584 15.3028 21.6205 15.9755 21.9725 16.5105C22.209 16.8698 22.134 17.3672 21.9156 17.6064ZM22.3821 16.1569C21.9102 15.517 20.5802 14.8588 19.5033 14.327C19.1093 14.1324 18.7679 13.9639 18.5263 13.8251C17.7505 13.2255 16.8676 13.5579 16.0136 13.8796C15.0013 14.2606 14.1211 14.5919 13.3171 13.6353C13.506 13.3531 13.9569 12.9102 14.3951 12.4799C14.5623 12.3157 14.7335 12.1475 14.9001 11.9791C15.1889 11.6875 15.4778 11.4421 15.7596 11.2483C17.121 10.312 18.1303 10.7339 19.0211 11.1066C19.4376 11.281 19.8627 11.459 20.2832 11.459C20.4377 11.459 20.5913 11.4308 20.7439 11.3738L22.5041 16.113C22.463 16.1278 22.4215 16.1427 22.3821 16.1569ZM25.2029 16.2028L23.7363 16.7474C23.5322 16.8227 23.3057 16.7189 23.2302 16.5155L21.0391 10.6158C21.0027 10.518 21.0069 10.4112 21.0509 10.3151C21.095 10.2191 21.1731 10.1462 21.271 10.1098L22.7375 9.56515C22.7816 9.54878 22.8275 9.54062 22.8733 9.54062C22.9294 9.54062 22.9855 9.55284 23.0383 9.57702C23.1343 9.62101 23.2072 9.69921 23.2436 9.79714L25.4348 15.6967C25.5104 15.9002 25.4063 16.1272 25.2029 16.2028Z" stroke="white" stroke-opacity="0.85"/>
</svg>
