<svg width="32" height="32" viewBox="0 0 32 32" fill="none" xmlns="http://www.w3.org/2000/svg">
<circle cx="16" cy="16" r="16" fill="#0F75BC"/>
<path d="M8 12.6L16 7L24 12.6V21.4C24 21.8243 23.8127 22.2313 23.4793 22.5314C23.1459 22.8314 22.6937 23 22.2222 23H9.77778C9.30628 23 8.8541 22.8314 8.5207 22.5314C8.1873 22.2313 8 21.8243 8 21.4V12.6Z" stroke="#FAFAFA" stroke-width="2" stroke-linecap="round" stroke-linejoin="round"/>
<path d="M8 12.6L16 7L24 12.6V21.4C24 21.8243 23.8127 22.2313 23.4793 22.5314C23.1459 22.8314 22.6937 23 22.2222 23H9.77778C9.30628 23 8.8541 22.8314 8.5207 22.5314C8.1873 22.2313 8 21.8243 8 21.4V12.6Z" stroke="white" stroke-opacity="0.85" stroke-width="2" stroke-linecap="round" stroke-linejoin="round"/>
<path d="M13.3333 23V15H18.6666V23" stroke="#FAFAFA" stroke-width="2" stroke-linecap="round" stroke-linejoin="round"/>
<path d="M13.3333 23V15H18.6666V23" stroke="white" stroke-opacity="0.85" stroke-width="2" stroke-linecap="round" stroke-linejoin="round"/>
</svg>
