<svg width="32" height="32" viewBox="0 0 32 32" fill="none" xmlns="http://www.w3.org/2000/svg">
<circle cx="16" cy="16" r="16" fill="#F3F3F3"/>
<path d="M22 10H20C20 7.79 18.21 6 16 6C13.79 6 12 7.79 12 10H10C8.9 10 8 10.9 8 12V24C8 25.1 8.9 26 10 26H22C23.1 26 24 25.1 24 24V12C24 10.9 23.1 10 22 10ZM16 8C17.1 8 18 8.9 18 10H14C14 8.9 14.9 8 16 8ZM22 24H10V12H12V14C12 14.55 12.45 15 13 15C13.55 15 14 14.55 14 14V12H18V14C18 14.55 18.45 15 19 15C19.55 15 20 14.55 20 14V12H22V24Z" fill="#0F75BC"/>
</svg>
